<?xml version="1.0" encoding="UTF-8"?>
<svg width="44px" height="64px" viewBox="0 0 44 64" version="1.1" xmlns="http://www.w3.org/2000/svg" xmlns:xlink="http://www.w3.org/1999/xlink">
    <!-- Generator: Sketch 42 (36781) - http://www.bohemiancoding.com/sketch -->
    <title>icon_visits_per_head</title>
    <desc>Created with Sketch.</desc>
    <defs></defs>
    <g id="Page-1" stroke="none" stroke-width="1" fill="none" fill-rule="evenodd">
        <g id="icon_visits_per_head" fill-rule="nonzero" fill="#8CC63F">
            <path d="M17.7,0.5 L35.4,14.5 L35.4,31.8 C35.9,32.1 36.4,32.4 36.9,32.7 C37.4,33 37.8,33.4 38.1,33.9 C39.2,35.8 40.2,37.8 41.2,39.7 C41.8,40.8 41.4,41.8 40.5,42.3 C39.6,42.8 38.6,42.4 38,41.3 C37.2,39.7 36.4,38.1 35.5,36.6 C35.4,36.5 35.4,36.4 35.3,36.3 L35.3,45.2 C35.7,47.1 36,49 36.4,50.9 C36.6,51.8 37,52.7 37.6,53.4 C39.1,55.4 40.7,57.2 42.3,59.1 C43.3,60.3 43.4,61.6 42.3,62.4 C41.3,63.3 40.1,63 39,61.8 C37.7,60.3 36.5,58.8 35.2,57.3 L35.2,63.1 L31.5,63.1 L31.5,52.3 C31.2,51.6 31.1,50.8 31,50 C30.9,48.8 30.6,47.6 30.3,46.2 C28.6,47.9 27.1,49.4 25.6,51 C25.2,51.4 24.9,52.1 24.9,52.7 C24.8,55.4 24.9,58.1 24.9,60.8 C24.9,62.3 24.1,63.2 22.8,63.3 C21.5,63.3 20.7,62.3 20.6,60.9 C20.6,57.4 20.5,54 20.6,50.5 C20.6,49.7 21,48.8 21.5,48.1 C22.9,46.4 24.5,44.9 26,43.2 C26.2,43 26.5,42.6 26.4,42.3 C26.1,40.7 25.8,39.2 25.4,37.7 C25.3,37.7 25.2,37.7 25.2,37.6 C24.8,38.4 24.3,39.3 23.9,40.1 C23.5,40.9 23,41.3 22.1,41.5 C20.2,41.8 18.3,42.3 16.5,42.6 C15.3,42.8 14.3,42.3 14.1,41.2 C13.9,40.1 14.5,39.3 15.8,39 C17.2,38.7 18.6,38.4 20,38.2 C20.7,38.1 21,37.8 21.3,37.2 C22.3,35 23.4,32.8 24.5,30.7 C25.7,28.3 28.3,27.6 30.6,28.9 C30.9,29 31.1,29.2 31.4,29.3 L31.4,16.9 L3.3,16.9 L3.3,63 L0,63 L0,14.1 L17.7,0.5 Z" id="Shape"></path>
            <circle id="head" cx="27.1" cy="24" r="3.7"></circle>
            <path d="M16.2,46.3 C16.7,46.1 16.9,45.7 16.9,45.1 L16.9,36.6 C16.9,36.1 16.7,35.7 16.2,35.5 C14.3,34.7 12.4,33.9 10.5,33 C10,32.8 9.8,33 9.8,33.5 L9.8,34.3 L9.9,34.3 C10.5,33.9 11,34.2 11.6,34.4 C13.1,35.1 14.5,35.7 16.1,36.4 C15.2,36.8 14.4,37 13.5,36.6 C11.7,35.8 9.9,35 8.1,34.3 C8,34.3 8,34.2 7.9,34.2 C7.4,34 7.2,34.1 7.2,34.7 L7.2,37.9 L7.2,43.3 C7.2,43.7 7.3,43.9 7.7,44.1 C9.5,44.9 11.3,45.7 13.1,46.5 C13.4,46.6 14.1,47 14.6,47 C15.1,47 15.9,46.5 16.2,46.3 Z" id="book"></path>
        </g>
    </g>
</svg>