<?xml version="1.0" encoding="UTF-8"?>
<svg width="65px" height="64px" viewBox="0 0 65 64" version="1.1" xmlns="http://www.w3.org/2000/svg" xmlns:xlink="http://www.w3.org/1999/xlink">
    <!-- Generator: Sketch 42 (36781) - http://www.bohemiancoding.com/sketch -->
    <title>icon_cost_per_capita</title>
    <desc>Created with Sketch.</desc>
    <defs></defs>
    <g id="Page-1" stroke="none" stroke-width="1" fill="none" fill-rule="evenodd">
        <g id="icon_cost_per_capita" fill-rule="nonzero" fill="#8CC63F">
            <path d="M32.3,0.2 C24,0.2 17.2,6.9 17.2,15.3 C17.2,23.6 23.9,30.4 32.3,30.4 C40.6,30.4 47.4,23.7 47.4,15.3 C47.4,6.9 40.6,0.2 32.3,0.2 Z M36.7,23.9 C35.7,24.4 34.6,24.7 33.3,24.7 C32.2,24.7 31.3,24.5 30.5,24.2 C29.7,23.8 28.9,23.4 28.3,22.7 C27.7,22.1 27.2,21.3 26.8,20.4 C26.4,19.5 26.1,18.5 26,17.4 L24.5,17.4 L24.5,15.2 L25.8,15.2 L25.8,14.7 L25.8,14.3 L25.8,13.9 L24.5,13.9 L24.5,11.7 L26.1,11.7 C26.3,10.7 26.7,9.7 27.1,8.8 C27.6,7.9 28.1,7.2 28.8,6.6 C29.4,6 30.2,5.5 31,5.2 C31.8,4.9 32.7,4.7 33.6,4.7 C34.9,4.7 35.9,5 36.9,5.5 C37.8,6 38.6,6.7 39.1,7.5 L37.6,9 L37.3,9.3 C37.2,9.4 37,9.4 36.8,9.4 C36.6,9.4 36.4,9.3 36.3,9.2 C36.2,9.1 36,8.9 35.8,8.8 C35.6,8.6 35.4,8.5 35.1,8.4 C34.8,8.3 34.4,8.2 33.9,8.2 C33.1,8.2 32.4,8.5 31.8,9.1 C31.2,9.7 30.8,10.6 30.5,11.7 L36.6,11.7 L36.6,12.9 C36.6,13 36.6,13.1 36.5,13.2 C36.4,13.3 36.4,13.4 36.3,13.5 C36.2,13.6 36.1,13.7 35.9,13.7 C35.8,13.8 35.6,13.8 35.4,13.8 L30,13.8 L30,14.2 L30,14.6 L30,15.1 L35.1,15.1 L35.1,16.3 C35.1,16.4 35.1,16.5 35,16.6 C34.9,16.7 34.9,16.8 34.8,16.9 C34.7,17 34.6,17.1 34.4,17.1 C34.3,17.2 34.1,17.2 33.9,17.2 L30.1,17.2 C30.3,18.5 30.7,19.4 31.3,20.1 C31.9,20.7 32.6,21 33.4,21 C33.8,21 34.1,21 34.4,20.9 C34.7,20.8 34.9,20.7 35.1,20.6 C35.3,20.5 35.4,20.4 35.6,20.2 C35.7,20.1 35.8,19.9 36,19.8 C36.1,19.7 36.2,19.6 36.3,19.5 C36.4,19.4 36.5,19.4 36.7,19.4 C36.8,19.4 36.9,19.4 37,19.5 C37.1,19.5 37.2,19.6 37.3,19.7 L39.1,21.3 C38.5,22.6 37.7,23.4 36.7,23.9 Z" id="Shape"></path>
            <path d="M15.8,32.9 C7.5,32.9 0.7,39.6 0.7,48 C0.7,56.3 7.4,63.1 15.8,63.1 C24.1,63.1 30.9,56.4 30.9,48 C30.9,39.6 24.1,32.9 15.8,32.9 Z M20.2,56.6 C19.2,57.1 18.1,57.4 16.8,57.4 C15.7,57.4 14.8,57.2 14,56.9 C13.2,56.5 12.4,56.1 11.8,55.4 C11.2,54.8 10.7,54 10.3,53.1 C9.9,52.2 9.6,51.2 9.5,50.1 L8,50.1 L8,48 L9.3,48 L9.3,47.5 L9.3,47.1 L9.3,46.7 L8,46.7 L8,44.5 L9.6,44.5 C9.8,43.5 10.2,42.5 10.6,41.6 C11.1,40.7 11.6,40 12.3,39.4 C12.9,38.8 13.7,38.3 14.5,38 C15.3,37.7 16.2,37.5 17.1,37.5 C18.4,37.5 19.4,37.8 20.4,38.3 C21.3,38.8 22.1,39.5 22.6,40.3 L21.1,41.8 C21,41.9 20.9,42 20.8,42.1 C20.7,42.2 20.5,42.2 20.3,42.2 C20.1,42.2 19.9,42.1 19.8,42 C19.7,41.9 19.5,41.7 19.3,41.6 C19.1,41.4 18.9,41.3 18.6,41.2 C18.3,41.1 17.9,41 17.4,41 C16.6,41 15.9,41.3 15.3,41.9 C14.7,42.5 14.3,43.4 14,44.5 L20.1,44.5 L20.1,45.7 C20.1,45.8 20.1,45.9 20,46 C19.9,46.1 19.9,46.2 19.8,46.3 C19.7,46.4 19.6,46.5 19.4,46.5 C19.3,46.6 19.1,46.6 18.9,46.6 L13.6,46.6 L13.6,47 L13.6,47.4 L13.6,47.9 L18.7,47.9 L18.7,49.1 C18.7,49.2 18.7,49.3 18.6,49.4 C18.5,49.5 18.5,49.6 18.4,49.7 C18.3,49.8 18.2,49.9 18,49.9 C17.9,50 17.7,50 17.5,50 L13.7,50 C13.9,51.3 14.3,52.2 14.9,52.9 C15.5,53.5 16.2,53.8 17,53.8 C17.4,53.8 17.7,53.8 18,53.7 C18.3,53.6 18.5,53.5 18.7,53.4 C18.9,53.3 19,53.2 19.2,53 C19.3,52.9 19.4,52.7 19.6,52.6 C19.7,52.5 19.8,52.4 19.9,52.3 C20,52.2 20.1,52.2 20.3,52.2 C20.4,52.2 20.5,52.2 20.6,52.3 C20.7,52.3 20.8,52.4 20.9,52.5 L22.7,54.1 C22,55.3 21.2,56.1 20.2,56.6 Z" id="Shape"></path>
            <path d="M49.9,32.9 C41.6,32.9 34.8,39.6 34.8,48 C34.8,56.3 41.5,63.1 49.9,63.1 C58.2,63.1 65,56.4 65,48 C65,39.6 58.3,32.9 49.9,32.9 Z M54.3,56.6 C53.3,57.1 52.2,57.4 50.9,57.4 C49.8,57.4 48.9,57.2 48.1,56.9 C47.3,56.5 46.5,56.1 45.9,55.4 C45.3,54.8 44.8,54 44.4,53.1 C44,52.2 43.7,51.2 43.6,50.1 L42.1,50.1 L42.1,48 L43.4,48 L43.4,47.5 L43.4,47.1 L43.4,46.7 L42.1,46.7 L42.1,44.5 L43.7,44.5 C43.9,43.5 44.3,42.5 44.7,41.6 C45.2,40.7 45.7,40 46.4,39.4 C47,38.8 47.8,38.3 48.6,38 C49.4,37.7 50.3,37.5 51.2,37.5 C52.5,37.5 53.5,37.8 54.5,38.3 C55.4,38.8 56.2,39.5 56.7,40.3 L55.2,41.8 C55.1,41.9 55,42 54.9,42.1 C54.8,42.2 54.6,42.2 54.4,42.2 C54.2,42.2 54,42.1 53.9,42 C53.8,41.9 53.6,41.7 53.4,41.6 C53.2,41.4 53,41.3 52.7,41.2 C52.4,41.1 52,41 51.5,41 C50.7,41 50,41.3 49.4,41.9 C48.8,42.5 48.4,43.4 48.1,44.5 L54.2,44.5 L54.2,45.7 C54.2,45.8 54.2,45.9 54.1,46 C54,46.1 54,46.2 53.9,46.3 C53.8,46.4 53.7,46.5 53.5,46.5 C53.4,46.6 53.2,46.6 53,46.6 L47.7,46.6 L47.7,47 L47.7,47.4 L47.7,47.9 L52.8,47.9 L52.8,49.1 C52.8,49.2 52.8,49.3 52.7,49.4 C52.6,49.5 52.6,49.6 52.5,49.7 C52.4,49.8 52.3,49.9 52.1,49.9 C52,50 51.8,50 51.6,50 L47.8,50 C48,51.3 48.4,52.2 49,52.9 C49.6,53.5 50.3,53.8 51.1,53.8 C51.5,53.8 51.8,53.8 52.1,53.7 C52.4,53.6 52.6,53.5 52.8,53.4 C53,53.3 53.1,53.2 53.3,53 C53.4,52.9 53.5,52.7 53.7,52.6 C53.8,52.5 53.9,52.4 54,52.3 C54.1,52.2 54.2,52.2 54.4,52.2 C54.5,52.2 54.6,52.2 54.7,52.3 C54.8,52.3 54.9,52.4 55,52.5 L56.8,54.1 C56.1,55.3 55.3,56.1 54.3,56.6 Z" id="Shape"></path>
        </g>
    </g>
</svg>