<?xml version="1.0" encoding="UTF-8"?>
<svg width="239px" height="67px" viewBox="0 0 239 67" version="1.1" xmlns="http://www.w3.org/2000/svg" xmlns:xlink="http://www.w3.org/1999/xlink">
    <g stroke="none" stroke-width="1" fill="none" fill-rule="evenodd">
        <g id="books" fill-rule="nonzero">
            <g id="book-grey" transform="translate(163.000000, 17.000000)">
                <path d="M70.7,31 C70.3,30.7 69.5,30.7 69.1,31 L44,45.6 C43.9,45.6 43.9,45.7 43.8,45.7 C43.1,45.7 42.7,44.4 42.7,43.9 C42.7,41.4 44.1,40.4 44.1,40.4 L44,40.4 L70.7,24.9 C71.1,24.6 71.1,24.2 70.7,24 L29.8,0.4 C29.4,0.1 28.6,0.1 28.2,0.4 L1.6,15.5 C1.6,15.5 0.2,16 0.2,19.5 C0.2,22.1 1.1,23 1.1,23 L1.1,23 C1.1,23.2 1.2,23.3 1.4,23.5 L42.3,47.6 C42.7,47.9 43.5,47.9 43.9,47.6 L70.6,32 C71.1,31.6 71.1,31.2 70.7,31 Z" id="Shape" fill="#808080"></path>
                <path d="M43.7,45.7 C43.8,45.7 43.9,45.7 43.9,45.6 L69,31 C69.1,30.9 69.3,30.9 69.5,30.8 L69.5,25.5 L44,40.4 L44.1,40.4 C44.1,40.4 42.7,41.3 42.7,43.9 C42.7,44.4 43,45.7 43.7,45.7 Z" id="Shape" fill="#E6E6E6"></path>
                <path d="M43.9,47.5 L70.6,31.9 C71,31.6 71,31.2 70.6,31 C70.2,30.7 69.4,30.7 69,31 L43.9,45.6 C43.8,45.6 43.8,45.7 43.7,45.7 C43.2,45.7 42.9,45.1 42.8,44.6 L0.2,20 C0.3,22.2 1.1,23 1.1,23 L1.1,23 C1.1,23.2 1.2,23.3 1.4,23.5 L42.3,47.6 C42.8,47.8 43.5,47.8 43.9,47.5 Z" id="Shape" fill="#6D6D6C"></path>
            </g>
            <g id="book-orange" transform="translate(0.000000, 20.000000)">
                <path d="M70.5,31.3 C70.1,31 69.3,31 68.9,31.3 L43.8,45.9 C43.7,45.9 43.7,46 43.6,46 C42.9,46 42.5,44.7 42.5,44.2 C42.5,41.7 43.9,40.7 43.9,40.7 L43.8,40.7 L70.5,25.2 C70.9,24.9 70.9,24.5 70.5,24.3 L29.6,0.7 C29.2,0.4 28.4,0.4 28,0.7 L1.4,15.8 C1.4,15.8 0,16.3 0,19.8 C0,22.4 0.9,23.3 0.9,23.3 L0.9,23.3 C0.9,23.5 1,23.6 1.2,23.8 L42.1,47.9 C42.5,48.2 43.3,48.2 43.7,47.9 L70.4,32.3 C71,32 71,31.5 70.5,31.3 Z" id="Shape" fill="#DD7E2F"></path>
                <path d="M43.6,46 C43.7,46 43.8,46 43.8,45.9 L68.9,31.3 C69,31.2 69.2,31.2 69.4,31.1 L69.4,25.8 L43.9,40.7 L44,40.7 C44,40.7 42.6,41.6 42.6,44.2 C42.5,44.7 42.9,46 43.6,46 Z" id="Shape" fill="#E6E6E6"></path>
                <path d="M43.8,47.8 L70.5,32.2 C70.9,31.9 70.9,31.5 70.5,31.3 C70.1,31 69.3,31 68.9,31.3 L43.8,45.9 C43.7,45.9 43.7,46 43.6,46 C43.1,46 42.8,45.4 42.7,44.9 L0,20.3 C0.1,22.5 0.9,23.3 0.9,23.3 L0.9,23.3 C0.9,23.5 1,23.6 1.2,23.8 L42.1,47.9 C42.6,48.1 43.4,48.1 43.8,47.8 Z" id="Shape" fill="#B76B2C"></path>
            </g>
            <g id="book-green" transform="translate(128.000000, 4.000000)">
                <path d="M71.4,31.8 C71,31.5 70.2,31.5 69.8,31.8 L44.7,46.4 C44.6,46.4 44.6,46.5 44.5,46.5 C43.8,46.5 43.4,45.2 43.4,44.7 C43.4,42.2 44.8,41.2 44.8,41.2 L44.7,41.2 L71.4,25.7 C71.8,25.4 71.8,25 71.4,24.8 L30.5,1.2 C30.1,0.9 29.3,0.9 28.9,1.2 L2.3,16.3 C2.3,16.3 0.9,16.8 0.9,20.3 C0.9,22.9 1.8,23.8 1.8,23.8 L1.8,23.8 C1.8,24 1.9,24.1 2.1,24.3 L43,48.4 C43.4,48.7 44.2,48.7 44.6,48.4 L71.3,32.8 C71.8,32.5 71.8,32.1 71.4,31.8 Z" id="Shape" fill="#8CC63F"></path>
                <path d="M44.4,46.5 C44.5,46.5 44.6,46.5 44.6,46.4 L69.7,31.8 C69.8,31.7 70,31.7 70.2,31.6 L70.2,26.3 L44.7,41.2 L44.8,41.2 C44.8,41.2 43.4,42.1 43.4,44.7 C43.4,45.2 43.7,46.5 44.4,46.5 Z" id="Shape" fill="#E6E6E6"></path>
                <path d="M44.7,48.3 L71.4,32.7 C71.8,32.4 71.8,32 71.4,31.8 C71,31.6 70.2,31.5 69.8,31.8 L44.7,46.4 C44.6,46.4 44.6,46.5 44.5,46.5 C44,46.5 43.7,45.9 43.6,45.4 L1,20.8 C1.1,23 1.9,23.8 1.9,23.8 L1.9,23.8 C1.9,24 2,24.1 2.2,24.3 L43.1,48.4 C43.5,48.6 44.2,48.6 44.7,48.3 Z" id="Shape" fill="#77A035"></path>
            </g>
            <g id="book-red" transform="translate(79.000000, 17.000000)">
                <path d="M71.3,31 C70.9,30.7 70.1,30.7 69.7,31 L44.6,45.6 C44.5,45.6 44.5,45.7 44.4,45.7 C43.7,45.7 43.3,44.4 43.3,43.9 C43.3,41.4 44.7,40.4 44.7,40.4 L44.6,40.4 L71.3,24.9 C71.7,24.6 71.7,24.2 71.3,24 L30.4,0.4 C30,0.1 29.2,0.1 28.8,0.4 L2.2,15.5 C2.2,15.5 0.8,16 0.8,19.5 C0.8,22.1 1.7,23 1.7,23 L1.7,23 C1.7,23.2 1.8,23.3 2,23.5 L42.9,47.6 C43.3,47.9 44.1,47.9 44.5,47.6 L71.2,32 C71.7,31.6 71.7,31.2 71.3,31 Z" id="Shape" fill="#F72846"></path>
                <path d="M44.3,45.7 C44.4,45.7 44.5,45.7 44.5,45.6 L69.6,31 C69.7,30.9 69.9,30.9 70.1,30.8 L70.1,25.5 L44.6,40.4 L44.7,40.4 C44.7,40.4 43.3,41.3 43.3,43.9 C43.3,44.4 43.6,45.7 44.3,45.7 Z" id="Shape" fill="#E6E6E6"></path>
                <path d="M44.6,47.5 L71.3,31.9 C71.7,31.6 71.7,31.2 71.3,31 C70.9,30.8 70.1,30.7 69.7,31 L44.6,45.6 C44.5,45.6 44.5,45.7 44.4,45.7 C43.9,45.7 43.6,45.1 43.5,44.6 L0.9,20 C1,22.2 1.8,23 1.8,23 L1.8,23 C1.8,23.2 1.9,23.3 2.1,23.5 L43,47.6 C43.4,47.8 44.1,47.8 44.6,47.5 Z" id="Shape" fill="#C12140"></path>
            </g>
            <g id="book-yellow" transform="translate(38.000000, 14.000000)">
                <path d="M71.3,31.2 C70.9,30.9 70.1,30.9 69.7,31.2 L44.6,45.8 C44.5,45.8 44.5,45.9 44.4,45.9 C43.7,45.9 43.3,44.6 43.3,44.1 C43.3,41.6 44.7,40.6 44.7,40.6 L44.6,40.6 L71.3,25.1 C71.7,24.8 71.7,24.4 71.3,24.2 L30.4,0.6 C30,0.3 29.2,0.3 28.8,0.6 L2.2,15.7 C2.2,15.7 0.8,16.2 0.8,19.7 C0.8,22.3 1.7,23.2 1.7,23.2 L1.7,23.2 C1.7,23.4 1.8,23.5 2,23.7 L42.9,47.8 C43.3,48.1 44.1,48.1 44.5,47.8 L71.2,32.2 C71.7,31.9 71.7,31.4 71.3,31.2 Z" id="Shape" fill="#D8E126"></path>
                <path d="M44.3,45.9 C44.4,45.9 44.5,45.9 44.5,45.8 L69.6,31.2 C69.7,31.1 69.9,31.1 70.1,31 L70.1,25.7 L44.6,40.6 L44.7,40.6 C44.7,40.6 43.3,41.5 43.3,44.1 C43.3,44.6 43.6,45.9 44.3,45.9 Z" id="Shape" fill="#E6E6E6"></path>
                <path d="M44.6,47.7 L71.3,32.1 C71.7,31.8 71.7,31.4 71.3,31.2 C70.9,30.9 70.1,30.9 69.7,31.2 L44.6,45.8 C44.5,45.8 44.5,45.9 44.4,45.9 C43.9,45.9 43.6,45.3 43.5,44.8 L0.9,20.2 C1,22.4 1.8,23.2 1.8,23.2 L1.8,23.2 C1.8,23.4 1.9,23.5 2.1,23.7 L43,47.8 C43.4,48 44.1,48 44.6,47.7 Z" id="Shape" fill="#BFBF25"></path>
            </g>
            <g id="book-blue" transform="translate(41.000000, 0.000000)">
                <path d="M70.5,31.5 C70.1,31.2 69.3,31.2 68.9,31.5 L43.8,46.1 C43.7,46.1 43.7,46.2 43.6,46.2 C42.9,46.2 42.5,44.9 42.5,44.4 C42.5,41.9 43.9,40.9 43.9,40.9 L43.8,40.9 L70.5,25.4 C70.9,25.1 70.9,24.7 70.5,24.5 L29.6,0.9 C29.2,0.6 28.4,0.6 28,0.9 L1.4,16 C1.4,16 -1.13686838e-13,16.5 -1.13686838e-13,20 C-1.13686838e-13,22.6 0.9,23.5 0.9,23.5 L0.9,23.5 C0.9,23.7 1,23.8 1.2,24 L42.1,48.1 C42.5,48.4 43.3,48.4 43.7,48.1 L70.4,32.5 C71,32.2 71,31.8 70.5,31.5 Z" id="Shape" fill="#14A7D0"></path>
                <path d="M43.6,46.3 C43.7,46.3 43.8,46.3 43.8,46.2 L68.9,31.6 C69,31.5 69.2,31.5 69.4,31.4 L69.4,26.1 L43.9,41 L44,41 C44,41 42.6,41.9 42.6,44.5 C42.5,44.9 42.9,46.2 43.6,46.3 Z" id="Shape" fill="#E6E6E6"></path>
                <path d="M43.8,48.1 L70.5,32.5 C70.9,32.2 70.9,31.8 70.5,31.6 C70.1,31.3 69.3,31.3 68.9,31.6 L43.8,46.2 C43.7,46.2 43.7,46.3 43.6,46.3 C43.1,46.3 42.8,45.7 42.7,45.2 L0,20.5 C0.1,22.7 0.9,23.5 0.9,23.5 L0.9,23.5 C0.9,23.7 1,23.8 1.2,24 L42.1,48.1 C42.6,48.3 43.4,48.3 43.8,48.1 Z" id="Shape" fill="#118DAA"></path>
            </g>
        </g>
    </g>
</svg>