<?xml version="1.0" encoding="UTF-8"?>
<svg width="296px" height="388px" viewBox="0 0 296 388" version="1.1" xmlns="http://www.w3.org/2000/svg" xmlns:xlink="http://www.w3.org/1999/xlink">
    <defs>
        <linearGradient x1="49.9900858%" y1="-0.00625848581%" x2="49.9900858%" y2="100.006465%" id="linearGradient-1">
            <stop stop-color="#8CC63F" offset="0%"></stop>
            <stop stop-color="#D1E8B2" offset="100%"></stop>
        </linearGradient>
        <linearGradient x1="0.0254108614%" y1="50.2563843%" x2="100.279145%" y2="50.2563843%" id="linearGradient-2">
            <stop stop-color="#603813" offset="0%"></stop>
            <stop stop-color="#8C6239" offset="34.32%"></stop>
            <stop stop-color="#8C6239" offset="69.42%"></stop>
            <stop stop-color="#603813" offset="100%"></stop>
        </linearGradient>
        <radialGradient cx="50.0839844%" cy="50.1269531%" fx="50.0839844%" fy="50.1269531%" r="50.0722656%" id="radialGradient-3">
            <stop stop-color="#D9E021" offset="0%"></stop>
            <stop stop-color="#8CC63F" offset="100%"></stop>
        </radialGradient>
        <radialGradient cx="50.0339844%" cy="50.1550781%" fx="50.0339844%" fy="50.1550781%" r="50.0722656%" id="radialGradient-4">
            <stop stop-color="#8CC63F" offset="0%"></stop>
            <stop stop-color="#9AAA00" offset="100%"></stop>
        </radialGradient>
        <radialGradient cx="50.0121094%" cy="49.9671875%" fx="50.0121094%" fy="49.9671875%" r="50.0722656%" id="radialGradient-5">
            <stop stop-color="#8CC63F" offset="0%"></stop>
            <stop stop-color="#9AAA00" offset="100%"></stop>
        </radialGradient>
        <linearGradient x1="-0.0569636367%" y1="49.9974716%" x2="100.21043%" y2="49.9974716%" id="linearGradient-6">
            <stop stop-color="#603813" offset="0%"></stop>
            <stop stop-color="#8C6239" offset="34.32%"></stop>
            <stop stop-color="#8C6239" offset="69.42%"></stop>
            <stop stop-color="#603813" offset="100%"></stop>
        </linearGradient>
        <radialGradient cx="49.996875%" cy="50.1304687%" fx="49.996875%" fy="50.1304687%" r="50.0722656%" id="radialGradient-7">
            <stop stop-color="#D9E021" offset="0%"></stop>
            <stop stop-color="#8CC63F" offset="100%"></stop>
        </radialGradient>
        <radialGradient cx="49.8894531%" cy="49.9335938%" fx="49.8894531%" fy="49.9335938%" r="50.0722656%" id="radialGradient-8">
            <stop stop-color="#8CC63F" offset="0%"></stop>
            <stop stop-color="#9AAA00" offset="100%"></stop>
        </radialGradient>
        <linearGradient x1="49.8403974%" y1="-0.0456862745%" x2="49.8403974%" y2="99.9703922%" id="linearGradient-9">
            <stop stop-color="#3FF6FF" offset="0%"></stop>
            <stop stop-color="#D0FFFF" offset="100%"></stop>
        </linearGradient>
        <linearGradient x1="49.9813278%" y1="0.00340599455%" x2="49.9813278%" y2="100.086376%" id="linearGradient-10">
            <stop stop-color="#3FF6FF" offset="0%"></stop>
            <stop stop-color="#D0FFFF" offset="100%"></stop>
        </linearGradient>
    </defs>
    <g stroke="none" stroke-width="1" fill="none" fill-rule="evenodd">
        <g>
            <g class="ground">
                <g transform="translate(-1.000000, 0.000000)" fill-rule="nonzero" fill="url(#linearGradient-1)">
                    <path d="M13.1,157.7 C16,159.4 16,162.1 13.1,163.7 C10.2,165.4 5.5,165.4 2.6,163.7 C-0.3,162 -0.3,159.3 2.6,157.7 C5.5,156 10.2,156 13.1,157.7 Z M20.7,147.3 C17.8,149 17.8,151.7 20.7,153.3 C23.6,155 28.3,155 31.2,153.3 C34.1,151.6 34.1,148.9 31.2,147.3 C28.3,145.7 23.6,145.6 20.7,147.3 Z M38.7,136.9 C35.8,138.6 35.8,141.3 38.7,142.9 C41.6,144.6 46.3,144.6 49.2,142.9 C52.1,141.2 52.1,138.5 49.2,136.9 C46.3,135.2 41.6,135.2 38.7,136.9 Z M56.8,126.4 C53.9,128.1 53.9,130.8 56.8,132.4 C59.7,134 64.4,134.1 67.3,132.4 C70.2,130.7 70.2,128 67.3,126.4 C64.3,124.8 59.6,124.8 56.8,126.4 Z M74.8,116 C71.9,117.7 71.9,120.4 74.8,122 C77.7,123.7 82.4,123.7 85.3,122 C88.2,120.3 88.2,117.6 85.3,116 C82.4,114.4 77.7,114.4 74.8,116 Z M92.8,105.6 C89.9,107.3 89.9,110 92.8,111.6 C95.7,113.2 100.4,113.3 103.3,111.6 C106.2,109.9 106.2,107.2 103.3,105.6 C100.4,103.9 95.7,104 92.8,105.6 Z M110.9,95.2 C108,96.9 108,99.6 110.9,101.2 C113.8,102.9 118.5,102.9 121.4,101.2 C124.3,99.5 124.3,96.8 121.4,95.2 C118.4,93.5 113.8,93.5 110.9,95.2 Z M128.9,84.8 C126,86.5 126,89.2 128.9,90.8 C131.8,92.5 136.5,92.5 139.4,90.8 C142.3,89.1 142.3,86.4 139.4,84.8 C136.5,83.1 131.8,83.1 128.9,84.8 Z M146.9,74.4 C144,76.1 144,78.8 146.9,80.4 C149.8,82.1 154.5,82.1 157.4,80.4 C160.3,78.7 160.3,76 157.4,74.4 C154.5,72.7 149.8,72.7 146.9,74.4 Z M165,64 C162.1,65.7 162.1,68.4 165,70 C167.9,71.7 172.6,71.7 175.5,70 C178.4,68.3 178.4,65.6 175.5,64 C172.5,62.3 167.9,62.3 165,64 Z M183,53.6 C180.1,55.3 180.1,58 183,59.6 C185.9,61.3 190.6,61.3 193.5,59.6 C196.4,57.9 196.4,55.2 193.5,53.6 C190.6,51.9 185.9,51.9 183,53.6 Z M201,43.2 C198.1,44.9 198.1,47.6 201,49.2 C203.9,50.9 208.6,50.9 211.5,49.2 C214.4,47.5 214.4,44.8 211.5,43.2 C208.6,41.5 203.9,41.5 201,43.2 Z M219.1,32.8 C216.2,34.5 216.2,37.2 219.1,38.8 C222,40.5 226.7,40.5 229.6,38.8 C232.5,37.1 232.5,34.4 229.6,32.8 C226.6,31.1 222,31.1 219.1,32.8 Z M237.1,22.4 C234.2,24.1 234.2,26.8 237.1,28.4 C240,30.1 244.7,30.1 247.6,28.4 C250.5,26.7 250.5,24 247.6,22.4 C244.7,20.8 240,20.7 237.1,22.4 Z M255.1,11.9 C252.2,13.6 252.2,16.3 255.1,17.9 C258,19.6 262.7,19.6 265.6,17.9 C268.5,16.2 268.5,13.5 265.6,11.9 C262.7,10.3 258,10.3 255.1,11.9 Z M273.2,1.5 C270.3,3.2 270.3,5.9 273.2,7.5 C276.1,9.2 280.8,9.2 283.7,7.5 C286.6,5.8 286.6,3.1 283.7,1.5 C280.8,-0.1 276.1,-0.1 273.2,1.5 Z M2.6,172.5 C-0.3,174.2 -0.3,176.9 2.6,178.5 C5.5,180.2 10.2,180.2 13.1,178.5 C16,176.8 16,174.1 13.1,172.5 C10.2,170.8 5.5,170.8 2.6,172.5 Z M20.7,162.1 C17.8,163.8 17.8,166.5 20.7,168.1 C23.6,169.8 28.3,169.8 31.2,168.1 C34.1,166.4 34.1,163.7 31.2,162.1 C28.3,160.5 23.6,160.4 20.7,162.1 Z M38.7,151.7 C35.8,153.4 35.8,156.1 38.7,157.7 C41.6,159.4 46.3,159.4 49.2,157.7 C52.1,156 52.1,153.3 49.2,151.7 C46.3,150.1 41.6,150 38.7,151.7 Z M56.8,141.2 C53.9,142.9 53.9,145.6 56.8,147.2 C59.7,148.9 64.4,148.9 67.3,147.2 C70.2,145.5 70.2,142.8 67.3,141.2 C64.4,139.6 59.6,139.6 56.8,141.2 Z M74.8,130.8 C71.9,132.5 71.9,135.2 74.8,136.8 C77.7,138.5 82.4,138.5 85.3,136.8 C88.2,135.1 88.2,132.4 85.3,130.8 C82.4,129.2 77.7,129.2 74.8,130.8 Z M92.8,120.4 C89.9,122.1 89.9,124.8 92.8,126.4 C95.7,128.1 100.4,128.1 103.3,126.4 C106.2,124.7 106.2,122 103.3,120.4 C100.4,118.7 95.7,118.8 92.8,120.4 Z M110.9,110 C108,111.7 108,114.4 110.9,116 C113.8,117.7 118.5,117.7 121.4,116 C124.3,114.3 124.3,111.6 121.4,110 C118.4,108.3 113.8,108.3 110.9,110 Z M128.9,99.6 C126,101.3 126,104 128.9,105.6 C131.8,107.3 136.5,107.3 139.4,105.6 C142.3,103.9 142.3,101.2 139.4,99.6 C136.5,97.9 131.8,97.9 128.9,99.6 Z M146.9,89.2 C144,90.9 144,93.6 146.9,95.2 C149.8,96.9 154.5,96.9 157.4,95.2 C160.3,93.5 160.3,90.8 157.4,89.2 C154.5,87.5 149.8,87.5 146.9,89.2 Z M165,78.8 C162.1,80.5 162.1,83.2 165,84.8 C167.9,86.5 172.6,86.5 175.5,84.8 C178.4,83.1 178.4,80.4 175.5,78.8 C172.5,77.1 167.9,77.1 165,78.8 Z M183,68.4 C180.1,70.1 180.1,72.8 183,74.4 C185.9,76.1 190.6,76.1 193.5,74.4 C196.4,72.7 196.4,70 193.5,68.4 C190.6,66.7 185.9,66.7 183,68.4 Z M201,58 C198.1,59.7 198.1,62.4 201,64 C203.9,65.7 208.6,65.7 211.5,64 C214.4,62.3 214.4,59.6 211.5,58 C208.6,56.3 203.9,56.3 201,58 Z M219.1,47.6 C216.2,49.3 216.2,52 219.1,53.6 C222,55.3 226.7,55.3 229.6,53.6 C232.5,51.9 232.5,49.2 229.6,47.6 C226.6,45.9 222,45.9 219.1,47.6 Z M237.1,37.2 C234.2,38.9 234.2,41.6 237.1,43.2 C240,44.9 244.7,44.9 247.6,43.2 C250.5,41.5 250.5,38.8 247.6,37.2 C244.7,35.5 240,35.5 237.1,37.2 Z M255.1,26.7 C252.2,28.4 252.2,31.1 255.1,32.7 C258,34.4 262.7,34.4 265.6,32.7 C268.5,31 268.5,28.3 265.6,26.7 C262.7,25.1 258,25.1 255.1,26.7 Z M273.2,16.3 C270.3,18 270.3,20.7 273.2,22.3 C276.1,24 280.8,24 283.7,22.3 C286.6,20.6 286.6,17.9 283.7,16.3 C280.8,14.7 276.1,14.7 273.2,16.3 Z M2.6,187.3 C-0.3,189 -0.3,191.7 2.6,193.3 C5.5,195 10.2,195 13.1,193.3 C16,191.6 16,188.9 13.1,187.3 C10.2,185.6 5.5,185.6 2.6,187.3 Z M20.7,176.9 C17.8,178.6 17.8,181.3 20.7,182.9 C23.6,184.6 28.3,184.6 31.2,182.9 C34.1,181.2 34.1,178.5 31.2,176.9 C28.3,175.2 23.6,175.2 20.7,176.9 Z M38.7,166.5 C35.8,168.2 35.8,170.9 38.7,172.5 C41.6,174.2 46.3,174.2 49.2,172.5 C52.1,170.8 52.1,168.1 49.2,166.5 C46.3,164.8 41.6,164.8 38.7,166.5 Z M56.8,156.1 C53.9,157.8 53.9,160.5 56.8,162.1 C59.7,163.8 64.4,163.8 67.3,162.1 C70.2,160.4 70.2,157.7 67.3,156.1 C64.3,154.4 59.6,154.4 56.8,156.1 Z M74.8,145.6 C71.9,147.3 71.9,150 74.8,151.6 C77.7,153.3 82.4,153.3 85.3,151.6 C88.2,149.9 88.2,147.2 85.3,145.6 C82.4,144 77.7,144 74.8,145.6 Z M92.8,135.2 C89.9,136.9 89.9,139.6 92.8,141.2 C95.7,142.9 100.4,142.9 103.3,141.2 C106.2,139.5 106.2,136.8 103.3,135.2 C100.4,133.6 95.7,133.6 92.8,135.2 Z M110.9,124.8 C108,126.5 108,129.2 110.9,130.8 C113.8,132.5 118.5,132.5 121.4,130.8 C124.3,129.1 124.3,126.4 121.4,124.8 C118.4,123.1 113.8,123.2 110.9,124.8 Z M128.9,114.4 C126,116.1 126,118.8 128.9,120.4 C131.8,122.1 136.5,122.1 139.4,120.4 C142.3,118.7 142.3,116 139.4,114.4 C136.5,112.7 131.8,112.7 128.9,114.4 Z M146.9,104 C144,105.7 144,108.4 146.9,110 C149.8,111.7 154.5,111.7 157.4,110 C160.3,108.3 160.3,105.6 157.4,104 C154.5,102.3 149.8,102.3 146.9,104 Z M165,93.6 C162.1,95.3 162.1,98 165,99.6 C167.9,101.3 172.6,101.3 175.5,99.6 C178.4,97.9 178.4,95.2 175.5,93.6 C172.5,91.9 167.9,91.9 165,93.6 Z M183,83.2 C180.1,84.9 180.1,87.6 183,89.2 C185.9,90.9 190.6,90.9 193.5,89.2 C196.4,87.5 196.4,84.8 193.5,83.2 C190.6,81.5 185.9,81.5 183,83.2 Z M201,72.8 C198.1,74.5 198.1,77.2 201,78.8 C203.9,80.5 208.6,80.5 211.5,78.8 C214.4,77.1 214.4,74.4 211.5,72.8 C208.6,71.1 203.9,71.1 201,72.8 Z M219.1,62.4 C216.2,64.1 216.2,66.8 219.1,68.4 C222,70.1 226.7,70.1 229.6,68.4 C232.5,66.7 232.5,64 229.6,62.4 C226.6,60.7 222,60.7 219.1,62.4 Z M237.1,52 C234.2,53.7 234.2,56.4 237.1,58 C240,59.7 244.7,59.7 247.6,58 C250.5,56.3 250.5,53.6 247.6,52 C244.7,50.4 240,50.3 237.1,52 Z M255.1,41.6 C252.2,43.3 252.2,46 255.1,47.6 C258,49.3 262.7,49.3 265.6,47.6 C268.5,45.9 268.5,43.2 265.6,41.6 C262.7,39.9 258,39.9 255.1,41.6 Z M273.2,31.1 C270.3,32.8 270.3,35.5 273.2,37.1 C276.1,38.8 280.8,38.8 283.7,37.1 C286.6,35.4 286.6,32.7 283.7,31.1 C280.8,29.5 276.1,29.5 273.2,31.1 Z M2.6,202.1 C-0.3,203.8 -0.3,206.5 2.6,208.1 C5.5,209.8 10.2,209.8 13.1,208.1 C16,206.4 16,203.7 13.1,202.1 C10.2,200.4 5.5,200.4 2.6,202.1 Z M20.7,191.7 C17.8,193.4 17.8,196.1 20.7,197.7 C23.6,199.3 28.3,199.4 31.2,197.7 C34.1,196 34.1,193.3 31.2,191.7 C28.3,190 23.6,190 20.7,191.7 Z M38.7,181.3 C35.8,183 35.8,185.7 38.7,187.3 C41.6,188.9 46.3,189 49.2,187.3 C52.1,185.6 52.1,182.9 49.2,181.3 C46.3,179.6 41.6,179.6 38.7,181.3 Z M56.8,170.9 C53.9,172.6 53.9,175.3 56.8,176.9 C59.7,178.5 64.4,178.6 67.3,176.9 C70.2,175.2 70.2,172.5 67.3,170.9 C64.3,169.2 59.6,169.2 56.8,170.9 Z M74.8,160.4 C71.9,162.1 71.9,164.8 74.8,166.4 C77.7,168.1 82.4,168.1 85.3,166.4 C88.2,164.7 88.2,162 85.3,160.4 C82.4,158.8 77.7,158.8 74.8,160.4 Z M92.8,150 C89.9,151.7 89.9,154.4 92.8,156 C95.7,157.7 100.4,157.7 103.3,156 C106.2,154.3 106.2,151.6 103.3,150 C100.4,148.4 95.7,148.4 92.8,150 Z M110.9,139.6 C108,141.3 108,144 110.9,145.6 C113.8,147.3 118.5,147.3 121.4,145.6 C124.3,143.9 124.3,141.2 121.4,139.6 C118.4,137.9 113.8,138 110.9,139.6 Z M128.9,129.2 C126,130.9 126,133.6 128.9,135.2 C131.8,136.9 136.5,136.9 139.4,135.2 C142.3,133.5 142.3,130.8 139.4,129.2 C136.5,127.5 131.8,127.5 128.9,129.2 Z M146.9,118.8 C144,120.5 144,123.2 146.9,124.8 C149.8,126.5 154.5,126.5 157.4,124.8 C160.3,123.1 160.3,120.4 157.4,118.8 C154.5,117.1 149.8,117.1 146.9,118.8 Z M165,108.4 C162.1,110.1 162.1,112.8 165,114.4 C167.9,116.1 172.6,116.1 175.5,114.4 C178.4,112.7 178.4,110 175.5,108.4 C172.5,106.7 167.9,106.7 165,108.4 Z M183,98 C180.1,99.7 180.1,102.4 183,104 C185.9,105.7 190.6,105.7 193.5,104 C196.4,102.3 196.4,99.6 193.5,98 C190.6,96.3 185.9,96.3 183,98 Z M201,87.6 C198.1,89.3 198.1,92 201,93.6 C203.9,95.3 208.6,95.3 211.5,93.6 C214.4,91.9 214.4,89.2 211.5,87.6 C208.6,85.9 203.9,85.9 201,87.6 Z M219.1,77.2 C216.2,78.9 216.2,81.6 219.1,83.2 C222,84.9 226.7,84.9 229.6,83.2 C232.5,81.5 232.5,78.8 229.6,77.2 C226.6,75.5 222,75.5 219.1,77.2 Z M237.1,66.8 C234.2,68.5 234.2,71.2 237.1,72.8 C240,74.5 244.7,74.5 247.6,72.8 C250.5,71.1 250.5,68.4 247.6,66.8 C244.7,65.1 240,65.1 237.1,66.8 Z M255.1,56.4 C252.2,58.1 252.2,60.8 255.1,62.4 C258,64.1 262.7,64.1 265.6,62.4 C268.5,60.7 268.5,58 265.6,56.4 C262.7,54.7 258,54.7 255.1,56.4 Z M273.2,45.9 C270.3,47.6 270.3,50.3 273.2,51.9 C276.1,53.6 280.8,53.6 283.7,51.9 C286.6,50.2 286.6,47.5 283.7,45.9 C280.8,44.3 276.1,44.3 273.2,45.9 Z M2.6,216.9 C-0.3,218.6 -0.3,221.3 2.6,222.9 C5.5,224.6 10.2,224.6 13.1,222.9 C16,221.2 16,218.5 13.1,216.9 C10.2,215.2 5.5,215.2 2.6,216.9 Z M20.7,206.5 C17.8,208.2 17.8,210.9 20.7,212.5 C23.6,214.2 28.3,214.2 31.2,212.5 C34.1,210.8 34.1,208.1 31.2,206.5 C28.3,204.9 23.6,204.8 20.7,206.5 Z M38.7,196.1 C35.8,197.8 35.8,200.5 38.7,202.1 C41.6,203.8 46.3,203.8 49.2,202.1 C52.1,200.4 52.1,197.7 49.2,196.1 C46.3,194.4 41.6,194.4 38.7,196.1 Z M56.8,185.7 C53.9,187.4 53.9,190.1 56.8,191.7 C59.7,193.4 64.4,193.4 67.3,191.7 C70.2,190 70.2,187.3 67.3,185.7 C64.3,184 59.6,184 56.8,185.7 Z M74.8,175.2 C71.9,176.9 71.9,179.6 74.8,181.2 C77.7,182.9 82.4,182.9 85.3,181.2 C88.2,179.5 88.2,176.8 85.3,175.2 C82.4,173.6 77.7,173.6 74.8,175.2 Z M92.8,164.8 C89.9,166.5 89.9,169.2 92.8,170.8 C95.7,172.4 100.4,172.5 103.3,170.8 C106.2,169.1 106.2,166.4 103.3,164.8 C100.4,163.2 95.7,163.2 92.8,164.8 Z M110.9,154.4 C108,156.1 108,158.8 110.9,160.4 C113.8,162.1 118.5,162.1 121.4,160.4 C124.3,158.7 124.3,156 121.4,154.4 C118.4,152.8 113.8,152.8 110.9,154.4 Z M128.9,144 C126,145.7 126,148.4 128.9,150 C131.8,151.7 136.5,151.7 139.4,150 C142.3,148.3 142.3,145.6 139.4,144 C136.5,142.3 131.8,142.3 128.9,144 Z M146.9,133.6 C144,135.3 144,138 146.9,139.6 C149.8,141.3 154.5,141.3 157.4,139.6 C160.3,137.9 160.3,135.2 157.4,133.6 C154.5,131.9 149.8,131.9 146.9,133.6 Z M165,123.2 C162.1,124.9 162.1,127.6 165,129.2 C167.9,130.9 172.6,130.9 175.5,129.2 C178.4,127.5 178.4,124.8 175.5,123.2 C172.5,121.5 167.9,121.5 165,123.2 Z M183,112.8 C180.1,114.5 180.1,117.2 183,118.8 C185.9,120.5 190.6,120.5 193.5,118.8 C196.4,117.1 196.4,114.4 193.5,112.8 C190.6,111.1 185.9,111.1 183,112.8 Z M201,102.4 C198.1,104.1 198.1,106.8 201,108.4 C203.9,110.1 208.6,110.1 211.5,108.4 C214.4,106.7 214.4,104 211.5,102.4 C208.6,100.7 203.9,100.7 201,102.4 Z M219.1,92 C216.2,93.7 216.2,96.4 219.1,98 C222,99.7 226.7,99.7 229.6,98 C232.5,96.3 232.5,93.6 229.6,92 C226.6,90.3 222,90.3 219.1,92 Z M237.1,81.6 C234.2,83.3 234.2,86 237.1,87.6 C240,89.2 244.7,89.3 247.6,87.6 C250.5,85.9 250.5,83.2 247.6,81.6 C244.7,79.9 240,79.9 237.1,81.6 Z M255.1,71.2 C252.2,72.9 252.2,75.6 255.1,77.2 C258,78.9 262.7,78.9 265.6,77.2 C268.5,75.5 268.5,72.8 265.6,71.2 C262.7,69.5 258,69.5 255.1,71.2 Z M273.2,60.7 C270.3,62.4 270.3,65.1 273.2,66.7 C276.1,68.4 280.8,68.4 283.7,66.7 C286.6,65 286.6,62.3 283.7,60.7 C280.8,59.1 276.1,59.1 273.2,60.7 Z M2.6,231.7 C-0.3,233.4 -0.3,236.1 2.6,237.7 C5.5,239.4 10.2,239.4 13.1,237.7 C16,236 16,233.3 13.1,231.7 C10.2,230 5.5,230 2.6,231.7 Z M20.7,221.3 C17.8,223 17.8,225.7 20.7,227.3 C23.6,229 28.3,229 31.2,227.3 C34.1,225.6 34.1,222.9 31.2,221.3 C28.3,219.6 23.6,219.6 20.7,221.3 Z M38.7,210.9 C35.8,212.6 35.8,215.3 38.7,216.9 C41.6,218.6 46.3,218.6 49.2,216.9 C52.1,215.2 52.1,212.5 49.2,210.9 C46.3,209.3 41.6,209.2 38.7,210.9 Z M56.8,200.5 C53.9,202.2 53.9,204.9 56.8,206.5 C59.7,208.2 64.4,208.2 67.3,206.5 C70.2,204.8 70.2,202.1 67.3,200.5 C64.4,198.9 59.6,198.8 56.8,200.5 Z M74.8,190.1 C71.9,191.8 71.9,194.5 74.8,196.1 C77.7,197.8 82.4,197.8 85.3,196.1 C88.2,194.4 88.2,191.7 85.3,190.1 C82.4,188.4 77.7,188.4 74.8,190.1 Z M92.8,179.6 C89.9,181.3 89.9,184 92.8,185.6 C95.7,187.3 100.4,187.3 103.3,185.6 C106.2,183.9 106.2,181.2 103.3,179.6 C100.4,178 95.7,178 92.8,179.6 Z M110.9,169.2 C108,170.9 108,173.6 110.9,175.2 C113.8,176.9 118.5,176.9 121.4,175.2 C124.3,173.5 124.3,170.8 121.4,169.2 C118.4,167.6 113.8,167.6 110.9,169.2 Z M128.9,158.8 C126,160.5 126,163.2 128.9,164.8 C131.8,166.5 136.5,166.5 139.4,164.8 C142.3,163.1 142.3,160.4 139.4,158.8 C136.5,157.1 131.8,157.2 128.9,158.8 Z M146.9,148.4 C144,150.1 144,152.8 146.9,154.4 C149.8,156.1 154.5,156.1 157.4,154.4 C160.3,152.7 160.3,150 157.4,148.4 C154.5,146.7 149.8,146.7 146.9,148.4 Z M165,138 C162.1,139.7 162.1,142.4 165,144 C167.9,145.7 172.6,145.7 175.5,144 C178.4,142.3 178.4,139.6 175.5,138 C172.5,136.3 167.9,136.3 165,138 Z M183,127.6 C180.1,129.3 180.1,132 183,133.6 C185.9,135.3 190.6,135.3 193.5,133.6 C196.4,131.9 196.4,129.2 193.5,127.6 C190.6,125.9 185.9,125.9 183,127.6 Z M201,117.2 C198.1,118.9 198.1,121.6 201,123.2 C203.9,124.9 208.6,124.9 211.5,123.2 C214.4,121.5 214.4,118.8 211.5,117.2 C208.6,115.5 203.9,115.5 201,117.2 Z M219.1,106.8 C216.2,108.5 216.2,111.2 219.1,112.8 C222,114.5 226.7,114.5 229.6,112.8 C232.5,111.1 232.5,108.4 229.6,106.8 C226.6,105.1 222,105.1 219.1,106.8 Z M237.1,96.4 C234.2,98.1 234.2,100.8 237.1,102.4 C240,104.1 244.7,104.1 247.6,102.4 C250.5,100.7 250.5,98 247.6,96.4 C244.7,94.8 240,94.7 237.1,96.4 Z M255.1,86 C252.2,87.7 252.2,90.4 255.1,92 C258,93.7 262.7,93.7 265.6,92 C268.5,90.3 268.5,87.6 265.6,86 C262.7,84.3 258,84.3 255.1,86 Z M273.2,75.6 C270.3,77.3 270.3,80 273.2,81.6 C276.1,83.3 280.8,83.3 283.7,81.6 C286.6,79.9 286.6,77.2 283.7,75.6 C280.8,73.9 276.1,73.9 273.2,75.6 Z M2.6,246.5 C-0.3,248.2 -0.3,250.9 2.6,252.5 C5.5,254.2 10.2,254.2 13.1,252.5 C16,250.8 16,248.1 13.1,246.5 C10.2,244.8 5.5,244.8 2.6,246.5 Z M20.7,236.1 C17.8,237.8 17.8,240.5 20.7,242.1 C23.6,243.7 28.3,243.8 31.2,242.1 C34.1,240.4 34.1,237.7 31.2,236.1 C28.3,234.4 23.6,234.4 20.7,236.1 Z M38.7,225.7 C35.8,227.4 35.8,230.1 38.7,231.7 C41.6,233.4 46.3,233.4 49.2,231.7 C52.1,230 52.1,227.3 49.2,225.7 C46.3,224 41.6,224 38.7,225.7 Z M56.8,215.3 C53.9,217 53.9,219.7 56.8,221.3 C59.7,223 64.4,223 67.3,221.3 C70.2,219.6 70.2,216.9 67.3,215.3 C64.3,213.6 59.6,213.6 56.8,215.3 Z M74.8,204.9 C71.9,206.6 71.9,209.3 74.8,210.9 C77.7,212.6 82.4,212.6 85.3,210.9 C88.2,209.2 88.2,206.5 85.3,204.9 C82.4,203.2 77.7,203.2 74.8,204.9 Z M92.8,194.4 C89.9,196.1 89.9,198.8 92.8,200.4 C95.7,202.1 100.4,202.1 103.3,200.4 C106.2,198.7 106.2,196 103.3,194.4 C100.4,192.8 95.7,192.8 92.8,194.4 Z M110.9,184 C108,185.7 108,188.4 110.9,190 C113.8,191.7 118.5,191.7 121.4,190 C124.3,188.3 124.3,185.6 121.4,184 C118.4,182.4 113.8,182.4 110.9,184 Z M128.9,173.6 C126,175.3 126,178 128.9,179.6 C131.8,181.3 136.5,181.3 139.4,179.6 C142.3,177.9 142.3,175.2 139.4,173.6 C136.5,171.9 131.8,172 128.9,173.6 Z M146.9,163.2 C144,164.9 144,167.6 146.9,169.2 C149.8,170.9 154.5,170.9 157.4,169.2 C160.3,167.5 160.3,164.8 157.4,163.2 C154.5,161.5 149.8,161.5 146.9,163.2 Z M165,152.8 C162.1,154.5 162.1,157.2 165,158.8 C167.9,160.5 172.6,160.5 175.5,158.8 C178.4,157.1 178.4,154.4 175.5,152.8 C172.5,151.1 167.9,151.1 165,152.8 Z M183,142.4 C180.1,144.1 180.1,146.8 183,148.4 C185.9,150.1 190.6,150.1 193.5,148.4 C196.4,146.7 196.4,144 193.5,142.4 C190.6,140.7 185.9,140.7 183,142.4 Z M201,132 C198.1,133.7 198.1,136.4 201,138 C203.9,139.7 208.6,139.7 211.5,138 C214.4,136.3 214.4,133.6 211.5,132 C208.6,130.3 203.9,130.3 201,132 Z M219.1,121.6 C216.2,123.3 216.2,126 219.1,127.6 C222,129.3 226.7,129.3 229.6,127.6 C232.5,125.9 232.5,123.2 229.6,121.6 C226.6,119.9 222,119.9 219.1,121.6 Z M237.1,111.2 C234.2,112.9 234.2,115.6 237.1,117.2 C240,118.9 244.7,118.9 247.6,117.2 C250.5,115.5 250.5,112.8 247.6,111.2 C244.7,109.6 240,109.5 237.1,111.2 Z M255.1,100.8 C252.2,102.5 252.2,105.2 255.1,106.8 C258,108.5 262.7,108.5 265.6,106.8 C268.5,105.1 268.5,102.4 265.6,100.8 C262.7,99.1 258,99.1 255.1,100.8 Z M273.2,90.4 C270.3,92.1 270.3,94.8 273.2,96.4 C276.1,98.1 280.8,98.1 283.7,96.4 C286.6,94.7 286.6,92 283.7,90.4 C280.8,88.7 276.1,88.7 273.2,90.4 Z M2.6,261.3 C-0.3,263 -0.3,265.7 2.6,267.3 C5.5,269 10.2,269 13.1,267.3 C16,265.6 16,262.9 13.1,261.3 C10.2,259.6 5.5,259.6 2.6,261.3 Z M20.7,250.9 C17.8,252.6 17.8,255.3 20.7,256.9 C23.6,258.6 28.3,258.6 31.2,256.9 C34.1,255.2 34.1,252.5 31.2,250.9 C28.3,249.2 23.6,249.2 20.7,250.9 Z M38.7,240.5 C35.8,242.2 35.8,244.9 38.7,246.5 C41.6,248.1 46.3,248.2 49.2,246.5 C52.1,244.8 52.1,242.1 49.2,240.5 C46.3,238.8 41.6,238.8 38.7,240.5 Z M56.8,230.1 C53.9,231.8 53.9,234.5 56.8,236.1 C59.7,237.7 64.4,237.8 67.3,236.1 C70.2,234.4 70.2,231.7 67.3,230.1 C64.3,228.4 59.6,228.4 56.8,230.1 Z M74.8,219.7 C71.9,221.4 71.9,224.1 74.8,225.7 C77.7,227.4 82.4,227.4 85.3,225.7 C88.2,224 88.2,221.3 85.3,219.7 C82.4,218 77.7,218 74.8,219.7 Z M92.8,209.3 C89.9,211 89.9,213.7 92.8,215.3 C95.7,217 100.4,217 103.3,215.3 C106.2,213.6 106.2,210.9 103.3,209.3 C100.4,207.6 95.7,207.6 92.8,209.3 Z M110.9,198.8 C108,200.5 108,203.2 110.9,204.8 C113.8,206.5 118.5,206.5 121.4,204.8 C124.3,203.1 124.3,200.4 121.4,198.8 C118.4,197.2 113.8,197.2 110.9,198.8 Z M128.9,188.4 C126,190.1 126,192.8 128.9,194.4 C131.8,196.1 136.5,196.1 139.4,194.4 C142.3,192.7 142.3,190 139.4,188.4 C136.5,186.8 131.8,186.8 128.9,188.4 Z M146.9,178 C144,179.7 144,182.4 146.9,184 C149.8,185.7 154.5,185.7 157.4,184 C160.3,182.3 160.3,179.6 157.4,178 C154.5,176.3 149.8,176.4 146.9,178 Z M165,167.6 C162.1,169.3 162.1,172 165,173.6 C167.9,175.3 172.6,175.3 175.5,173.6 C178.4,171.9 178.4,169.2 175.5,167.6 C172.5,165.9 167.9,165.9 165,167.6 Z M183,157.2 C180.1,158.9 180.1,161.6 183,163.2 C185.9,164.9 190.6,164.9 193.5,163.2 C196.4,161.5 196.4,158.8 193.5,157.2 C190.6,155.5 185.9,155.5 183,157.2 Z M201,146.8 C198.1,148.5 198.1,151.2 201,152.8 C203.9,154.5 208.6,154.5 211.5,152.8 C214.4,151.1 214.4,148.4 211.5,146.8 C208.6,145.1 203.9,145.1 201,146.8 Z M219.1,136.4 C216.2,138.1 216.2,140.8 219.1,142.4 C222,144.1 226.7,144.1 229.6,142.4 C232.5,140.7 232.5,138 229.6,136.4 C226.6,134.7 222,134.7 219.1,136.4 Z M237.1,126 C234.2,127.7 234.2,130.4 237.1,132 C240,133.7 244.7,133.7 247.6,132 C250.5,130.3 250.5,127.6 247.6,126 C244.7,124.3 240,124.3 237.1,126 Z M255.1,115.6 C252.2,117.3 252.2,120 255.1,121.6 C258,123.3 262.7,123.3 265.6,121.6 C268.5,119.9 268.5,117.2 265.6,115.6 C262.7,113.9 258,113.9 255.1,115.6 Z M273.2,105.2 C270.3,106.9 270.3,109.6 273.2,111.2 C276.1,112.9 280.8,112.9 283.7,111.2 C286.6,109.5 286.6,106.8 283.7,105.2 C280.8,103.5 276.1,103.5 273.2,105.2 Z M2.6,276.1 C-0.3,277.8 -0.3,280.5 2.6,282.1 C5.5,283.8 10.2,283.8 13.1,282.1 C16,280.4 16,277.7 13.1,276.1 C10.2,274.4 5.5,274.4 2.6,276.1 Z M20.7,265.7 C17.8,267.4 17.8,270.1 20.7,271.7 C23.6,273.4 28.3,273.4 31.2,271.7 C34.1,270 34.1,267.3 31.2,265.7 C28.3,264.1 23.6,264 20.7,265.7 Z M38.7,255.3 C35.8,257 35.8,259.7 38.7,261.3 C41.6,263 46.3,263 49.2,261.3 C52.1,259.6 52.1,256.9 49.2,255.3 C46.3,253.7 41.6,253.6 38.7,255.3 Z M56.8,244.9 C53.9,246.6 53.9,249.3 56.8,250.9 C59.7,252.6 64.4,252.6 67.3,250.9 C70.2,249.2 70.2,246.5 67.3,244.9 C64.3,243.2 59.6,243.2 56.8,244.9 Z M74.8,234.5 C71.9,236.2 71.9,238.9 74.8,240.5 C77.7,242.2 82.4,242.2 85.3,240.5 C88.2,238.8 88.2,236.1 85.3,234.5 C82.4,232.8 77.7,232.8 74.8,234.5 Z M92.8,224.1 C89.9,225.8 89.9,228.5 92.8,230.1 C95.7,231.7 100.4,231.8 103.3,230.1 C106.2,228.4 106.2,225.7 103.3,224.1 C100.4,222.4 95.7,222.4 92.8,224.1 Z M110.9,213.6 C108,215.3 108,218 110.9,219.6 C113.8,221.3 118.5,221.3 121.4,219.6 C124.3,217.9 124.3,215.2 121.4,213.6 C118.4,212 113.8,212 110.9,213.6 Z M128.9,203.2 C126,204.9 126,207.6 128.9,209.2 C131.8,210.9 136.5,210.9 139.4,209.2 C142.3,207.5 142.3,204.8 139.4,203.2 C136.5,201.6 131.8,201.6 128.9,203.2 Z M146.9,192.8 C144,194.5 144,197.2 146.9,198.8 C149.8,200.5 154.5,200.5 157.4,198.8 C160.3,197.1 160.3,194.4 157.4,192.8 C154.5,191.1 149.8,191.2 146.9,192.8 Z M165,182.4 C162.1,184.1 162.1,186.8 165,188.4 C167.9,190.1 172.6,190.1 175.5,188.4 C178.4,186.7 178.4,184 175.5,182.4 C172.5,180.7 167.9,180.7 165,182.4 Z M183,172 C180.1,173.7 180.1,176.4 183,178 C185.9,179.7 190.6,179.7 193.5,178 C196.4,176.3 196.4,173.6 193.5,172 C190.6,170.3 185.9,170.3 183,172 Z M201,161.6 C198.1,163.3 198.1,166 201,167.6 C203.9,169.3 208.6,169.3 211.5,167.6 C214.4,165.9 214.4,163.2 211.5,161.6 C208.6,159.9 203.9,159.9 201,161.6 Z M219.1,151.2 C216.2,152.9 216.2,155.6 219.1,157.2 C222,158.9 226.7,158.9 229.6,157.2 C232.5,155.5 232.5,152.8 229.6,151.2 C226.6,149.5 222,149.5 219.1,151.2 Z M237.1,140.8 C234.2,142.5 234.2,145.2 237.1,146.8 C240,148.4 244.7,148.5 247.6,146.8 C250.5,145.1 250.5,142.4 247.6,140.8 C244.7,139.1 240,139.1 237.1,140.8 Z M255.1,130.4 C252.2,132.1 252.2,134.8 255.1,136.4 C258,138.1 262.7,138.1 265.6,136.4 C268.5,134.7 268.5,132 265.6,130.4 C262.7,128.7 258,128.7 255.1,130.4 Z M273.2,120 C270.3,121.7 270.3,124.4 273.2,126 C276.1,127.7 280.8,127.7 283.7,126 C286.6,124.3 286.6,121.6 283.7,120 C280.8,118.3 276.1,118.3 273.2,120 Z M2.6,290.9 C-0.3,292.6 -0.3,295.3 2.6,296.9 C5.5,298.6 10.2,298.6 13.1,296.9 C16,295.2 16,292.5 13.1,290.9 C10.2,289.2 5.5,289.2 2.6,290.9 Z M20.7,280.5 C17.8,282.2 17.8,284.9 20.7,286.5 C23.6,288.2 28.3,288.2 31.2,286.5 C34.1,284.8 34.1,282.1 31.2,280.5 C28.3,278.8 23.6,278.8 20.7,280.5 Z M38.7,270.1 C35.8,271.8 35.8,274.5 38.7,276.1 C41.6,277.8 46.3,277.8 49.2,276.1 C52.1,274.4 52.1,271.7 49.2,270.1 C46.3,268.5 41.6,268.4 38.7,270.1 Z M56.8,259.7 C53.9,261.4 53.9,264.1 56.8,265.7 C59.7,267.4 64.4,267.4 67.3,265.7 C70.2,264 70.2,261.3 67.3,259.7 C64.4,258.1 59.6,258 56.8,259.7 Z M74.8,249.3 C71.9,251 71.9,253.7 74.8,255.3 C77.7,257 82.4,257 85.3,255.3 C88.2,253.6 88.2,250.9 85.3,249.3 C82.4,247.6 77.7,247.6 74.8,249.3 Z M92.8,238.9 C89.9,240.6 89.9,243.3 92.8,244.9 C95.7,246.6 100.4,246.6 103.3,244.9 C106.2,243.2 106.2,240.5 103.3,238.9 C100.4,237.2 95.7,237.2 92.8,238.9 Z M110.9,228.4 C108,230.1 108,232.8 110.9,234.4 C113.8,236.1 118.5,236.1 121.4,234.4 C124.3,232.7 124.3,230 121.4,228.4 C118.4,226.8 113.8,226.8 110.9,228.4 Z M128.9,218 C126,219.7 126,222.4 128.9,224 C131.8,225.7 136.5,225.7 139.4,224 C142.3,222.3 142.3,219.6 139.4,218 C136.5,216.4 131.8,216.4 128.9,218 Z M146.9,207.6 C144,209.3 144,212 146.9,213.6 C149.8,215.3 154.5,215.3 157.4,213.6 C160.3,211.9 160.3,209.2 157.4,207.6 C154.5,206 149.8,206 146.9,207.6 Z M165,197.2 C162.1,198.9 162.1,201.6 165,203.2 C167.9,204.9 172.6,204.9 175.5,203.2 C178.4,201.5 178.4,198.8 175.5,197.2 C172.5,195.5 167.9,195.5 165,197.2 Z M183,186.8 C180.1,188.5 180.1,191.2 183,192.8 C185.9,194.5 190.6,194.5 193.5,192.8 C196.4,191.1 196.4,188.4 193.5,186.8 C190.6,185.1 185.9,185.1 183,186.8 Z M201,176.4 C198.1,178.1 198.1,180.8 201,182.4 C203.9,184.1 208.6,184.1 211.5,182.4 C214.4,180.7 214.4,178 211.5,176.4 C208.6,174.7 203.9,174.7 201,176.4 Z M219.1,166 C216.2,167.7 216.2,170.4 219.1,172 C222,173.7 226.7,173.7 229.6,172 C232.5,170.3 232.5,167.6 229.6,166 C226.6,164.3 222,164.3 219.1,166 Z M237.1,155.6 C234.2,157.3 234.2,160 237.1,161.6 C240,163.3 244.7,163.3 247.6,161.6 C250.5,159.9 250.5,157.2 247.6,155.6 C244.7,154 240,153.9 237.1,155.6 Z M255.1,145.2 C252.2,146.9 252.2,149.6 255.1,151.2 C258,152.9 262.7,152.9 265.6,151.2 C268.5,149.5 268.5,146.8 265.6,145.2 C262.7,143.5 258,143.5 255.1,145.2 Z M273.2,134.8 C270.3,136.5 270.3,139.2 273.2,140.8 C276.1,142.5 280.8,142.5 283.7,140.8 C286.6,139.1 286.6,136.4 283.7,134.8 C280.8,133.1 276.1,133.1 273.2,134.8 Z M2.6,305.7 C-0.3,307.4 -0.3,310.1 2.6,311.7 C5.5,313.4 10.2,313.4 13.1,311.7 C16,310 16,307.3 13.1,305.7 C10.2,304 5.5,304 2.6,305.7 Z M20.7,295.3 C17.8,297 17.8,299.7 20.7,301.3 C23.6,302.9 28.3,303 31.2,301.3 C34.1,299.6 34.1,296.9 31.2,295.3 C28.3,293.6 23.6,293.6 20.7,295.3 Z M38.7,284.9 C35.8,286.6 35.8,289.3 38.7,290.9 C41.6,292.6 46.3,292.6 49.2,290.9 C52.1,289.2 52.1,286.5 49.2,284.9 C46.3,283.3 41.6,283.2 38.7,284.9 Z M56.8,274.5 C53.9,276.2 53.9,278.9 56.8,280.5 C59.7,282.2 64.4,282.2 67.3,280.5 C70.2,278.8 70.2,276.1 67.3,274.5 C64.3,272.8 59.6,272.8 56.8,274.5 Z M74.8,264.1 C71.9,265.8 71.9,268.5 74.8,270.1 C77.7,271.8 82.4,271.8 85.3,270.1 C88.2,268.4 88.2,265.7 85.3,264.1 C82.4,262.4 77.7,262.4 74.8,264.1 Z M92.8,253.7 C89.9,255.4 89.9,258.1 92.8,259.7 C95.7,261.4 100.4,261.4 103.3,259.7 C106.2,258 106.2,255.3 103.3,253.7 C100.4,252.1 95.7,252 92.8,253.7 Z M110.9,243.3 C108,245 108,247.7 110.9,249.3 C113.8,251 118.5,251 121.4,249.3 C124.3,247.6 124.3,244.9 121.4,243.3 C118.4,241.6 113.8,241.6 110.9,243.3 Z M128.9,232.8 C126,234.5 126,237.2 128.9,238.8 C131.8,240.5 136.5,240.5 139.4,238.8 C142.3,237.1 142.3,234.4 139.4,232.8 C136.5,231.2 131.8,231.2 128.9,232.8 Z M146.9,222.4 C144,224.1 144,226.8 146.9,228.4 C149.8,230.1 154.5,230.1 157.4,228.4 C160.3,226.7 160.3,224 157.4,222.4 C154.5,220.8 149.8,220.8 146.9,222.4 Z M165,212 C162.1,213.7 162.1,216.4 165,218 C167.9,219.7 172.6,219.7 175.5,218 C178.4,216.3 178.4,213.6 175.5,212 C172.5,210.3 167.9,210.4 165,212 Z M183,201.6 C180.1,203.3 180.1,206 183,207.6 C185.9,209.3 190.6,209.3 193.5,207.6 C196.4,205.9 196.4,203.2 193.5,201.6 C190.6,199.9 185.9,199.9 183,201.6 Z M201,191.2 C198.1,192.9 198.1,195.6 201,197.2 C203.9,198.9 208.6,198.9 211.5,197.2 C214.4,195.5 214.4,192.8 211.5,191.2 C208.6,189.5 203.9,189.5 201,191.2 Z M219.1,180.8 C216.2,182.5 216.2,185.2 219.1,186.8 C222,188.5 226.7,188.5 229.6,186.8 C232.5,185.1 232.5,182.4 229.6,180.8 C226.6,179.1 222,179.1 219.1,180.8 Z M237.1,170.4 C234.2,172.1 234.2,174.8 237.1,176.4 C240,178.1 244.7,178.1 247.6,176.4 C250.5,174.7 250.5,172 247.6,170.4 C244.7,168.7 240,168.7 237.1,170.4 Z M255.1,160 C252.2,161.7 252.2,164.4 255.1,166 C258,167.7 262.7,167.7 265.6,166 C268.5,164.3 268.5,161.6 265.6,160 C262.7,158.3 258,158.3 255.1,160 Z M273.2,149.6 C270.3,151.3 270.3,154 273.2,155.6 C276.1,157.3 280.8,157.3 283.7,155.6 C286.6,153.9 286.6,151.2 283.7,149.6 C280.8,147.9 276.1,147.9 273.2,149.6 Z M2.6,320.5 C-0.3,322.2 -0.3,324.9 2.6,326.5 C5.5,328.2 10.2,328.2 13.1,326.5 C16,324.8 16,322.1 13.1,320.5 C10.2,318.8 5.5,318.8 2.6,320.5 Z M20.7,310.1 C17.8,311.8 17.8,314.5 20.7,316.1 C23.6,317.8 28.3,317.8 31.2,316.1 C34.1,314.4 34.1,311.7 31.2,310.1 C28.3,308.5 23.6,308.4 20.7,310.1 Z M38.7,299.7 C35.8,301.4 35.8,304.1 38.7,305.7 C41.6,307.3 46.3,307.4 49.2,305.7 C52.1,304 52.1,301.3 49.2,299.7 C46.3,298 41.6,298 38.7,299.7 Z M56.8,289.3 C53.9,291 53.9,293.7 56.8,295.3 C59.7,297 64.4,297 67.3,295.3 C70.2,293.6 70.2,290.9 67.3,289.3 C64.3,287.6 59.6,287.6 56.8,289.3 Z M74.8,278.9 C71.9,280.6 71.9,283.3 74.8,284.9 C77.7,286.6 82.4,286.6 85.3,284.9 C88.2,283.2 88.2,280.5 85.3,278.9 C82.4,277.2 77.7,277.2 74.8,278.9 Z M92.8,268.5 C89.9,270.2 89.9,272.9 92.8,274.5 C95.7,276.2 100.4,276.2 103.3,274.5 C106.2,272.8 106.2,270.1 103.3,268.5 C100.4,266.8 95.7,266.8 92.8,268.5 Z M110.9,258.1 C108,259.8 108,262.5 110.9,264.1 C113.8,265.8 118.5,265.8 121.4,264.1 C124.3,262.4 124.3,259.7 121.4,258.1 C118.4,256.4 113.8,256.4 110.9,258.1 Z M128.9,247.6 C126,249.3 126,252 128.9,253.6 C131.8,255.3 136.5,255.3 139.4,253.6 C142.3,251.9 142.3,249.2 139.4,247.6 C136.5,246 131.8,246 128.9,247.6 Z M146.9,237.2 C144,238.9 144,241.6 146.9,243.2 C149.8,244.9 154.5,244.9 157.4,243.2 C160.3,241.5 160.3,238.8 157.4,237.2 C154.5,235.6 149.8,235.6 146.9,237.2 Z M165,226.8 C162.1,228.5 162.1,231.2 165,232.8 C167.9,234.5 172.6,234.5 175.5,232.8 C178.4,231.1 178.4,228.4 175.5,226.8 C172.5,225.1 167.9,225.2 165,226.8 Z M183,216.4 C180.1,218.1 180.1,220.8 183,222.4 C185.9,224.1 190.6,224.1 193.5,222.4 C196.4,220.7 196.4,218 193.5,216.4 C190.6,214.7 185.9,214.7 183,216.4 Z M201,206 C198.1,207.7 198.1,210.4 201,212 C203.9,213.7 208.6,213.7 211.5,212 C214.4,210.3 214.4,207.6 211.5,206 C208.6,204.3 203.9,204.3 201,206 Z M219.1,195.6 C216.2,197.3 216.2,200 219.1,201.6 C222,203.3 226.7,203.3 229.6,201.6 C232.5,199.9 232.5,197.2 229.6,195.6 C226.6,193.9 222,193.9 219.1,195.6 Z M237.1,185.2 C234.2,186.9 234.2,189.6 237.1,191.2 C240,192.8 244.7,192.9 247.6,191.2 C250.5,189.5 250.5,186.8 247.6,185.2 C244.7,183.5 240,183.5 237.1,185.2 Z M255.1,174.8 C252.2,176.5 252.2,179.2 255.1,180.8 C258,182.5 262.7,182.5 265.6,180.8 C268.5,179.1 268.5,176.4 265.6,174.8 C262.7,173.1 258,173.1 255.1,174.8 Z M273.2,164.4 C270.3,166.1 270.3,168.8 273.2,170.4 C276.1,172.1 280.8,172.1 283.7,170.4 C286.6,168.7 286.6,166 283.7,164.4 C280.8,162.7 276.1,162.7 273.2,164.4 Z M2.6,335.3 C-0.3,337 -0.3,339.7 2.6,341.3 C5.5,343 10.2,343 13.1,341.3 C16,339.6 16,336.9 13.1,335.3 C10.2,333.6 5.5,333.6 2.6,335.3 Z M20.7,324.9 C17.8,326.6 17.8,329.3 20.7,330.9 C23.6,332.6 28.3,332.6 31.2,330.9 C34.1,329.2 34.1,326.5 31.2,324.9 C28.3,323.2 23.6,323.2 20.7,324.9 Z M38.7,314.5 C35.8,316.2 35.8,318.9 38.7,320.5 C41.6,322.2 46.3,322.2 49.2,320.5 C52.1,318.8 52.1,316.1 49.2,314.5 C46.3,312.9 41.6,312.8 38.7,314.5 Z M56.8,304.1 C53.9,305.8 53.9,308.5 56.8,310.1 C59.7,311.7 64.4,311.8 67.3,310.1 C70.2,308.4 70.2,305.7 67.3,304.1 C64.3,302.4 59.6,302.4 56.8,304.1 Z M74.8,293.7 C71.9,295.4 71.9,298.1 74.8,299.7 C77.7,301.4 82.4,301.4 85.3,299.7 C88.2,298 88.2,295.3 85.3,293.7 C82.4,292 77.7,292 74.8,293.7 Z M92.8,283.3 C89.9,285 89.9,287.7 92.8,289.3 C95.7,290.9 100.4,291 103.3,289.3 C106.2,287.6 106.2,284.9 103.3,283.3 C100.4,281.6 95.7,281.6 92.8,283.3 Z M110.9,272.9 C108,274.6 108,277.3 110.9,278.9 C113.8,280.6 118.5,280.6 121.4,278.9 C124.3,277.2 124.3,274.5 121.4,272.9 C118.4,271.2 113.8,271.2 110.9,272.9 Z M128.9,262.5 C126,264.2 126,266.9 128.9,268.5 C131.8,270.2 136.5,270.2 139.4,268.5 C142.3,266.8 142.3,264.1 139.4,262.5 C136.5,260.8 131.8,260.8 128.9,262.5 Z M146.9,252 C144,253.7 144,256.4 146.9,258 C149.8,259.7 154.5,259.7 157.4,258 C160.3,256.3 160.3,253.6 157.4,252 C154.5,250.4 149.8,250.4 146.9,252 Z M165,241.6 C162.1,243.3 162.1,246 165,247.6 C167.9,249.3 172.6,249.3 175.5,247.6 C178.4,245.9 178.4,243.2 175.5,241.6 C172.5,240 167.9,240 165,241.6 Z M183,231.2 C180.1,232.9 180.1,235.6 183,237.2 C185.9,238.9 190.6,238.9 193.5,237.2 C196.4,235.5 196.4,232.8 193.5,231.2 C190.6,229.5 185.9,229.6 183,231.2 Z M201,220.8 C198.1,222.5 198.1,225.2 201,226.8 C203.9,228.5 208.6,228.5 211.5,226.8 C214.4,225.1 214.4,222.4 211.5,220.8 C208.6,219.1 203.9,219.1 201,220.8 Z M219.1,210.4 C216.2,212.1 216.2,214.8 219.1,216.4 C222,218.1 226.7,218.1 229.6,216.4 C232.5,214.7 232.5,212 229.6,210.4 C226.6,208.7 222,208.7 219.1,210.4 Z M237.1,200 C234.2,201.7 234.2,204.4 237.1,206 C240,207.7 244.7,207.7 247.6,206 C250.5,204.3 250.5,201.6 247.6,200 C244.7,198.3 240,198.3 237.1,200 Z M255.1,189.6 C252.2,191.3 252.2,194 255.1,195.6 C258,197.3 262.7,197.3 265.6,195.6 C268.5,193.9 268.5,191.2 265.6,189.6 C262.7,187.9 258,187.9 255.1,189.6 Z M273.2,179.2 C270.3,180.9 270.3,183.6 273.2,185.2 C276.1,186.9 280.8,186.9 283.7,185.2 C286.6,183.5 286.6,180.8 283.7,179.2 C280.8,177.5 276.1,177.5 273.2,179.2 Z M2.6,350.1 C-0.3,351.8 -0.3,354.5 2.6,356.1 C5.5,357.8 10.2,357.8 13.1,356.1 C16,354.4 16,351.7 13.1,350.1 C10.2,348.4 5.5,348.4 2.6,350.1 Z M20.7,339.7 C17.8,341.4 17.8,344.1 20.7,345.7 C23.6,347.3 28.3,347.4 31.2,345.7 C34.1,344 34.1,341.3 31.2,339.7 C28.3,338.1 23.6,338 20.7,339.7 Z M38.7,329.3 C35.8,331 35.8,333.7 38.7,335.3 C41.6,337 46.3,337 49.2,335.3 C52.1,333.6 52.1,330.9 49.2,329.3 C46.3,327.6 41.6,327.6 38.7,329.3 Z M56.8,318.9 C53.9,320.6 53.9,323.3 56.8,324.9 C59.7,326.6 64.4,326.6 67.3,324.9 C70.2,323.2 70.2,320.5 67.3,318.9 C64.4,317.3 59.6,317.2 56.8,318.9 Z M74.8,308.5 C71.9,310.2 71.9,312.9 74.8,314.5 C77.7,316.2 82.4,316.2 85.3,314.5 C88.2,312.8 88.2,310.1 85.3,308.5 C82.4,306.8 77.7,306.8 74.8,308.5 Z M92.8,298.1 C89.9,299.8 89.9,302.5 92.8,304.1 C95.7,305.8 100.4,305.8 103.3,304.1 C106.2,302.4 106.2,299.7 103.3,298.1 C100.4,296.5 95.7,296.4 92.8,298.1 Z M110.9,287.7 C108,289.4 108,292.1 110.9,293.7 C113.8,295.4 118.5,295.4 121.4,293.7 C124.3,292 124.3,289.3 121.4,287.7 C118.4,286 113.8,286 110.9,287.7 Z M128.9,277.3 C126,279 126,281.7 128.9,283.3 C131.8,285 136.5,285 139.4,283.3 C142.3,281.6 142.3,278.9 139.4,277.3 C136.5,275.6 131.8,275.6 128.9,277.3 Z M146.9,266.8 C144,268.5 144,271.2 146.9,272.8 C149.8,274.5 154.5,274.5 157.4,272.8 C160.3,271.1 160.3,268.4 157.4,266.8 C154.5,265.2 149.8,265.2 146.9,266.8 Z M165,256.4 C162.1,258.1 162.1,260.8 165,262.4 C167.9,264.1 172.6,264.1 175.5,262.4 C178.4,260.7 178.4,258 175.5,256.4 C172.5,254.8 167.9,254.8 165,256.4 Z M183,246 C180.1,247.7 180.1,250.4 183,252 C185.9,253.7 190.6,253.7 193.5,252 C196.4,250.3 196.4,247.6 193.5,246 C190.6,244.3 185.9,244.4 183,246 Z M201,235.6 C198.1,237.3 198.1,240 201,241.6 C203.9,243.3 208.6,243.3 211.5,241.6 C214.4,239.9 214.4,237.2 211.5,235.6 C208.6,233.9 203.9,233.9 201,235.6 Z M219.1,225.2 C216.2,226.9 216.2,229.6 219.1,231.2 C222,232.9 226.7,232.9 229.6,231.2 C232.5,229.5 232.5,226.8 229.6,225.2 C226.6,223.5 222,223.5 219.1,225.2 Z M237.1,214.8 C234.2,216.5 234.2,219.2 237.1,220.8 C240,222.5 244.7,222.5 247.6,220.8 C250.5,219.1 250.5,216.4 247.6,214.8 C244.7,213.2 240,213.1 237.1,214.8 Z M255.1,204.4 C252.2,206.1 252.2,208.8 255.1,210.4 C258,212.1 262.7,212.1 265.6,210.4 C268.5,208.7 268.5,206 265.6,204.4 C262.7,202.7 258,202.7 255.1,204.4 Z M273.2,194 C270.3,195.7 270.3,198.4 273.2,200 C276.1,201.7 280.8,201.7 283.7,200 C286.6,198.3 286.6,195.6 283.7,194 C280.8,192.3 276.1,192.3 273.2,194 Z M2.6,364.9 C-0.3,366.6 -0.3,369.3 2.6,370.9 C5.5,372.6 10.2,372.6 13.1,370.9 C16,369.2 16,366.5 13.1,364.9 C10.2,363.2 5.5,363.2 2.6,364.9 Z M20.7,354.5 C17.8,356.2 17.8,358.9 20.7,360.5 C23.6,362.2 28.3,362.2 31.2,360.5 C34.1,358.8 34.1,356.1 31.2,354.5 C28.3,352.8 23.6,352.8 20.7,354.5 Z M38.7,344.1 C35.8,345.8 35.8,348.5 38.7,350.1 C41.6,351.7 46.3,351.8 49.2,350.1 C52.1,348.4 52.1,345.7 49.2,344.1 C46.3,342.4 41.6,342.4 38.7,344.1 Z M56.8,333.7 C53.9,335.4 53.9,338.1 56.8,339.7 C59.7,341.4 64.4,341.4 67.3,339.7 C70.2,338 70.2,335.3 67.3,333.7 C64.3,332 59.6,332 56.8,333.7 Z M74.8,323.3 C71.9,325 71.9,327.7 74.8,329.3 C77.7,331 82.4,331 85.3,329.3 C88.2,327.6 88.2,324.9 85.3,323.3 C82.4,321.6 77.7,321.6 74.8,323.3 Z M92.8,312.9 C89.9,314.6 89.9,317.3 92.8,318.9 C95.7,320.6 100.4,320.6 103.3,318.9 C106.2,317.2 106.2,314.5 103.3,312.9 C100.4,311.2 95.7,311.2 92.8,312.9 Z M110.9,302.5 C108,304.2 108,306.9 110.9,308.5 C113.8,310.2 118.5,310.2 121.4,308.5 C124.3,306.8 124.3,304.1 121.4,302.5 C118.4,300.8 113.8,300.8 110.9,302.5 Z M128.9,292.1 C126,293.8 126,296.5 128.9,298.1 C131.8,299.8 136.5,299.8 139.4,298.1 C142.3,296.4 142.3,293.7 139.4,292.1 C136.5,290.4 131.8,290.4 128.9,292.1 Z M146.9,281.6 C144,283.3 144,286 146.9,287.6 C149.8,289.3 154.5,289.3 157.4,287.6 C160.3,285.9 160.3,283.2 157.4,281.6 C154.5,280 149.8,280 146.9,281.6 Z M165,271.2 C162.1,272.9 162.1,275.6 165,277.2 C167.9,278.9 172.6,278.9 175.5,277.2 C178.4,275.5 178.4,272.8 175.5,271.2 C172.5,269.6 167.9,269.6 165,271.2 Z M183,260.8 C180.1,262.5 180.1,265.2 183,266.8 C185.9,268.5 190.6,268.5 193.5,266.8 C196.4,265.1 196.4,262.4 193.5,260.8 C190.6,259.2 185.9,259.2 183,260.8 Z M201,250.4 C198.1,252.1 198.1,254.8 201,256.4 C203.9,258.1 208.6,258.1 211.5,256.4 C214.4,254.7 214.4,252 211.5,250.4 C208.6,248.7 203.9,248.7 201,250.4 Z M219.1,240 C216.2,241.7 216.2,244.4 219.1,246 C222,247.7 226.7,247.7 229.6,246 C232.5,244.3 232.5,241.6 229.6,240 C226.6,238.3 222,238.3 219.1,240 Z M237.1,229.6 C234.2,231.3 234.2,234 237.1,235.6 C240,237.3 244.7,237.3 247.6,235.6 C250.5,233.9 250.5,231.2 247.6,229.6 C244.7,227.9 240,227.9 237.1,229.6 Z M255.1,219.2 C252.2,220.9 252.2,223.6 255.1,225.2 C258,226.9 262.7,226.9 265.6,225.2 C268.5,223.5 268.5,220.8 265.6,219.2 C262.7,217.5 258,217.5 255.1,219.2 Z M273.2,208.8 C270.3,210.5 270.3,213.2 273.2,214.8 C276.1,216.5 280.8,216.5 283.7,214.8 C286.6,213.1 286.6,210.4 283.7,208.8 C280.8,207.1 276.1,207.1 273.2,208.8 Z M2.6,379.7 C-0.3,381.4 -0.3,384.1 2.6,385.7 C5.5,387.4 10.2,387.4 13.1,385.7 C16,384 16,381.3 13.1,379.7 C10.2,378 5.5,378.1 2.6,379.7 Z M20.7,369.3 C17.8,371 17.8,373.7 20.7,375.3 C23.6,376.9 28.3,377 31.2,375.3 C34.1,373.6 34.1,370.9 31.2,369.3 C28.3,367.6 23.6,367.6 20.7,369.3 Z M38.7,358.9 C35.8,360.6 35.8,363.3 38.7,364.9 C41.6,366.6 46.3,366.6 49.2,364.9 C52.1,363.2 52.1,360.5 49.2,358.9 C46.3,357.3 41.6,357.2 38.7,358.9 Z M56.8,348.5 C53.9,350.2 53.9,352.9 56.8,354.5 C59.7,356.1 64.4,356.2 67.3,354.5 C70.2,352.8 70.2,350.1 67.3,348.5 C64.3,346.8 59.6,346.8 56.8,348.5 Z M74.8,338.1 C71.9,339.8 71.9,342.5 74.8,344.1 C77.7,345.8 82.4,345.8 85.3,344.1 C88.2,342.4 88.2,339.7 85.3,338.1 C82.4,336.4 77.7,336.4 74.8,338.1 Z M92.8,327.7 C89.9,329.4 89.9,332.1 92.8,333.7 C95.7,335.3 100.4,335.4 103.3,333.7 C106.2,332 106.2,329.3 103.3,327.7 C100.4,326.1 95.7,326 92.8,327.7 Z M110.9,317.3 C108,319 108,321.7 110.9,323.3 C113.8,325 118.5,325 121.4,323.3 C124.3,321.6 124.3,318.9 121.4,317.3 C118.4,315.6 113.8,315.6 110.9,317.3 Z M128.9,306.9 C126,308.6 126,311.3 128.9,312.9 C131.8,314.6 136.5,314.6 139.4,312.9 C142.3,311.2 142.3,308.5 139.4,306.9 C136.5,305.2 131.8,305.2 128.9,306.9 Z M146.9,296.5 C144,298.2 144,300.9 146.9,302.5 C149.8,304.2 154.5,304.2 157.4,302.5 C160.3,300.8 160.3,298.1 157.4,296.5 C154.5,294.8 149.8,294.8 146.9,296.5 Z M165,286 C162.1,287.7 162.1,290.4 165,292 C167.9,293.7 172.6,293.7 175.5,292 C178.4,290.3 178.4,287.6 175.5,286 C172.5,284.4 167.9,284.4 165,286 Z M183,275.6 C180.1,277.3 180.1,280 183,281.6 C185.9,283.3 190.6,283.3 193.5,281.6 C196.4,279.9 196.4,277.2 193.5,275.6 C190.6,274 185.9,274 183,275.6 Z M201,265.2 C198.1,266.9 198.1,269.6 201,271.2 C203.9,272.9 208.6,272.9 211.5,271.2 C214.4,269.5 214.4,266.8 211.5,265.2 C208.6,263.5 203.9,263.6 201,265.2 Z M219.1,254.8 C216.2,256.5 216.2,259.2 219.1,260.8 C222,262.5 226.7,262.5 229.6,260.8 C232.5,259.1 232.5,256.4 229.6,254.8 C226.6,253.1 222,253.1 219.1,254.8 Z M237.1,244.4 C234.2,246.1 234.2,248.8 237.1,250.4 C240,252 244.7,252.1 247.6,250.4 C250.5,248.7 250.5,246 247.6,244.4 C244.7,242.7 240,242.7 237.1,244.4 Z M255.1,234 C252.2,235.7 252.2,238.4 255.1,240 C258,241.7 262.7,241.7 265.6,240 C268.5,238.3 268.5,235.6 265.6,234 C262.7,232.3 258,232.3 255.1,234 Z M273.2,223.6 C270.3,225.3 270.3,228 273.2,229.6 C276.1,231.3 280.8,231.3 283.7,229.6 C286.6,227.9 286.6,225.2 283.7,223.6 C280.8,221.9 276.1,221.9 273.2,223.6 Z" id="Shape"></path>
                </g>
            </g>
            <g class="front-tree-shadow">
                <g transform="translate(1.000000, 113.000000)" fill-rule="nonzero">
                    <g transform="translate(18.000000, 20.000000)" fill="#000000" opacity="0.15">
                        <path d="M48.8,24.1 C51.3,23.7 53.7,22.9 55.7,21.8 C61.8,18.3 61.8,12.6 55.6,9 C51.3,6.5 45.2,5.8 39.8,6.7 C39.1,5.3 37.8,3.9 35.8,2.8 C29.7,-0.7 19.8,-0.8 13.7,2.8 C8.4,5.9 7.7,10.7 11.8,14.2 C9.7,16.7 9.8,19.7 12.1,22.2 L1.4,28.4 L1.4,28.4 C0.6,28.8 0.3,29.5 0.8,30.4 C1.6,32.2 4.8,34 7.8,34.4 C9.4,34.7 10.7,34.5 11.4,34 L19.7,29.2 C20.4,29.9 21.2,30.5 22.2,31.1 C28.3,34.6 38.2,34.7 44.3,31.1 C47.6,29.3 49.1,26.7 48.8,24.1 Z" id="shadow_3_"></path>
                    </g>
                </g>
            </g>
            <g class="front-tree">
                <g transform="translate(1.000000, 113.000000)" fill-rule="nonzero">
                    <path d="M29.9,51.1 L29.9,34.8 L18.5,34.8 L18.5,51.2 L18.5,51.2 C18.5,52.1 19,53 20.2,53.6 C22.4,54.9 26.1,54.9 28.3,53.6 C29.5,52.9 30,52 29.9,51.1 Z" id="Shape" fill="url(#linearGradient-2)"></path>
                    <ellipse id="Oval" fill="url(#radialGradient-3)" cx="22.4" cy="26.6" rx="12.8" ry="12.8"></ellipse>
                    <ellipse id="Oval" fill="url(#radialGradient-4)" cx="12.9" cy="35.4" rx="12.8" ry="12.8"></ellipse>
                    <ellipse id="Oval" fill="url(#radialGradient-5)" cx="30.5" cy="13.1" rx="12.8" ry="12.8"></ellipse>
                    <ellipse id="Oval" fill="#8BBA38" cx="33.3" cy="29.1" rx="12.8" ry="12.8"></ellipse>
                </g>
            </g>
            <g class="back-tree-shadow">
                <g transform="translate(216.000000, 48.000000)" fill-rule="nonzero">
                    <g transform="translate(19.000000, 20.000000)" fill="#000000" opacity="0.15">
                        <path d="M48.6,24.2 C51.1,23.8 53.5,23 55.5,21.9 C61.6,18.4 61.6,12.7 55.4,9.1 C51.1,6.6 45,5.9 39.6,6.8 C38.9,5.4 37.6,4 35.6,2.9 C29.5,-0.6 19.6,-0.7 13.5,2.9 C8.2,6 7.5,10.8 11.6,14.3 C9.5,16.8 9.6,19.8 11.9,22.3 L1.2,28.5 L1.2,28.5 C0.4,28.9 0.1,29.6 0.6,30.5 C1.4,32.3 4.6,34.1 7.6,34.5 C9.2,34.8 10.5,34.6 11.2,34.1 L19.5,29.3 C20.2,30 21,30.6 22,31.2 C28.1,34.7 38,34.8 44.1,31.2 C47.4,29.3 48.9,26.7 48.6,24.2 Z" id="shadow_2_"></path>
                    </g>
                </g>
            </g>
            <g class="back-tree">
                <g transform="translate(216.000000, 48.000000)" fill-rule="nonzero">
                    <path d="M30.7,51.2 L30.7,34.9 L19.3,34.9 L19.3,51.3 L19.3,51.3 C19.3,52.2 19.8,53.1 21,53.7 C23.2,55 26.9,55 29.1,53.7 C30.2,53 30.8,52.1 30.7,51.2 Z" id="Shape" fill="url(#linearGradient-6)"></path>
                    <ellipse id="Oval" fill="#8BBA38" cx="19.8" cy="21.9" rx="12.8" ry="12.8"></ellipse>
                    <ellipse id="Oval" fill="url(#radialGradient-7)" cx="13.7" cy="30" rx="12.8" ry="12.8"></ellipse>
                    <ellipse id="Oval" fill="#8BBA38" cx="31.3" cy="13.1" rx="12.8" ry="12.8"></ellipse>
                    <ellipse id="Oval" fill="url(#radialGradient-8)" cx="34.1" cy="29.2" rx="12.8" ry="12.8"></ellipse>
                </g>
            </g>
            <g class="library-building-shadow">
                <g transform="translate(68.000000, 52.000000)">
                    <g transform="translate(0.000000, 41.000000)" fill-rule="nonzero" fill="#000000" opacity="0.15">
                        <polygon id="shadow" points="148.1 1.9 112 0.4 0.9 66.9 49.1 94.7 116.5 55.8 160.2 29.9"></polygon>
                    </g>
                </g>
            </g>
            <g class="library-building">
                <g transform="translate(68.000000, 52.000000)">
                    <g transform="translate(1.000000, 1.000000)" fill-rule="nonzero">
                        <polygon id="Shape" fill="#964F1B" points="48.5 134.2 108.8 99.5 108.8 36.8 48.5 71.6"></polygon>
                        <polygon id="Shape" fill="#DD7E2F" points="48.5 134.2 48.5 71.6 24.3 36.4 0.3 42.5 0.3 106.4"></polygon>
                        <polygon id="Shape" fill="#525252" points="48.5 70.4 108.8 35.6 84.7 0.8 60.6 7.8 0.5 41.3 24.4 35.6"></polygon>
                        <polygon id="Shape" fill="#6B4628" points="48.5 70.3 24.4 35.5 0.5 41.2 0.5 42.6 24.4 36.8 48.5 71.6 108.8 36.8 108.8 35.5"></polygon>
                        <path d="M72.6,120.3 L84.7,113.3 L84.7,92.9 C84.7,92.9 82,90.8 78.6,92.5 C74.3,94.6 72.6,99.9 72.6,99.9 L72.6,120.3 Z" id="Shape" fill="#2F4D91"></path>
                        <path d="M26.8,88.7 L26.8,76.2 L36.4,81.8 L36.4,94.3 L26.8,88.7 Z M15.9,82.4 L15.9,69.9 L6.3,64.3 L6.3,76.8 L15.9,82.4 Z M36.5,115.3 L36.5,102.8 L26.9,97.2 L26.9,109.7 L36.5,115.3 Z M15.9,103.4 L15.9,90.9 L6.3,85.3 L6.3,97.8 L15.9,103.4 Z" id="Shape" fill="url(#linearGradient-9)"></path>
                        <path d="M82.8,82.7 C82.8,85.2 81,88.3 78.8,89.6 C76.6,90.9 74.8,89.9 74.8,87.3 C74.8,84.7 76.6,81.7 78.8,80.4 C81,79.2 82.8,80.2 82.8,82.7 Z" id="Shape" fill="#AF591E"></path>
                        <path d="M54.6,78.4 L66.7,71.4 L66.7,84 L54.6,91 L54.6,78.4 Z M72.6,80.4 L84.7,73.4 L84.7,60.9 L72.6,67.9 L72.6,80.4 Z M90.7,69.8 L102.8,62.8 L102.8,50.3 L90.7,57.3 L90.7,69.8 Z M61.2,99.5 C61.2,97.4 59.7,96.6 57.9,97.6 C56.1,98.7 54.6,101.2 54.6,103.3 L54.6,103.3 L54.6,123.7 L61.2,119.9 L61.2,100.1 L61.2,99.5 Z M69.9,94.4 C69.9,92.3 68.4,91.5 66.6,92.5 C64.8,93.6 63.3,96.1 63.3,98.2 L63.3,98.2 L63.3,118.6 L69.9,114.8 L69.9,95 L69.9,94.4 Z M94.1,80.6 C94.1,78.5 92.6,77.7 90.8,78.7 C89,79.8 87.5,82.3 87.5,84.4 L87.5,84.4 L87.5,104.8 L94.1,101 L94.1,81.2 L94.1,80.6 Z M102.8,75.5 C102.8,73.4 101.3,72.6 99.5,73.6 C97.7,74.7 96.2,77.2 96.2,79.3 L96.2,79.3 L96.2,99.7 L102.8,95.9 L102.8,76.1 L102.8,75.5 Z" id="Shape" fill="url(#linearGradient-10)"></path>
                        <g id="Group" transform="translate(54.000000, 50.000000)" fill="#6B4628">
                            <path d="M6,47.3 C6.5,47.7 6.8,48.4 6.8,49.3 C6.8,49.5 6.8,49.7 6.7,50 L6.7,69.8 L0.6,73.3 L0.6,73.8 L7.2,70 L7.2,50.2 C7.2,50 7.3,49.7 7.3,49.5 C7.2,48.3 6.7,47.6 6,47.3 Z" id="Shape"></path>
                            <path d="M14.7,42.1 C15.2,42.5 15.5,43.2 15.5,44.1 C15.5,44.3 15.5,44.5 15.4,44.8 L15.4,64.6 L9.3,68.1 L9.3,68.6 L15.9,64.8 L15.9,45 C15.9,44.8 16,44.5 16,44.3 C15.9,43.2 15.4,42.4 14.7,42.1 Z" id="Shape"></path>
                            <polygon id="Shape" points="48.8 0.3 48.3 0.6 48.3 12.6 36.7 19.3 36.7 19.8 48.8 12.8"></polygon>
                            <polygon id="Shape" points="12.2 33.8 0.6 40.5 0.6 41 12.6 34 12.6 21.5 12.2 21.7"></polygon>
                            <path d="M30.3,42.7 L30.3,63.1 L18.7,69.8 L18.7,70.3 L30.8,63.3 L30.8,42.9 C30.8,42.9 30.5,42.7 30.1,42.5 C30.1,42.6 30.3,42.7 30.3,42.7 Z" id="Shape"></path>
                            <path d="M47.6,23.2 C48.1,23.6 48.4,24.3 48.4,25.2 C48.4,25.4 48.4,25.6 48.3,25.9 L48.3,45.7 L42.2,49.2 L42.2,49.7 L48.8,45.9 L48.8,26.1 C48.8,25.9 48.9,25.6 48.9,25.4 C48.8,24.3 48.3,23.5 47.6,23.2 Z" id="Shape"></path>
                            <path d="M38.9,28.4 C39.4,28.8 39.7,29.5 39.7,30.4 C39.7,30.6 39.7,30.8 39.6,31.1 L39.6,50.9 L33.5,54.4 L33.5,54.9 L40.1,51.1 L40.1,31.3 C40.1,31.1 40.2,30.8 40.2,30.6 C40.1,29.5 39.6,28.7 38.9,28.4 Z" id="Shape"></path>
                            <polygon id="Shape" points="30.3 23.2 18.6 29.9 18.6 30.4 30.7 23.4 30.7 10.9 30.3 11.1"></polygon>
                        </g>
                        <g id="Group" transform="translate(6.000000, 64.000000)" fill="#6B4628">
                            <polygon id="Shape" points="21 45.7 21 33.3 20.8 33.2 20.8 45.7 30.5 51.3 30.5 51.1"></polygon>
                            <polygon id="Shape" points="30.5 30.2 21 24.7 21 12.3 20.8 12.2 20.8 24.7 30.5 30.3"></polygon>
                            <polygon id="Shape" points="9.9 18.2 0.4 12.8 0.4 0.4 0.2 0.3 0.2 12.8 9.9 18.4"></polygon>
                            <polygon id="Shape" points="0.4 33.7 0.4 21.3 0.2 21.2 0.2 33.8 9.9 39.4 9.9 39.2"></polygon>
                        </g>
                    </g>
                </g>
            </g>
            <g class="book-roof-leaves">
                <g transform="translate(68.000000, 52.000000)">
                    <g transform="translate(1.000000, 36.000000)" stroke-linecap="round" stroke-width="0.9921" stroke="#E6E6E6">
                        <path d="M24.4,0.6 L36.6,39.7" id="Shape"></path>
                        <path d="M24.4,0.6 L38.2,39.7" id="Shape"></path>
                        <path d="M24.4,0.6 L39.8,39.7" id="Shape"></path>
                        <path d="M24.4,0.6 L41.4,39.5" id="Shape"></path>
                        <path d="M24.4,0.6 L43,39.1" id="Shape"></path>
                        <path d="M24.4,0.6 L44.5,38.5" id="Shape"></path>
                        <path d="M24.4,0.6 L46,37.8" id="Shape"></path>
                        <path d="M24.4,0.6 L47.5,36.9" id="Shape"></path>
                        <path d="M24.4,0.6 L48.5,35.4" id="Shape"></path>
                        <path d="M24.4,0.6 L35.1,39.5" id="Shape"></path>
                        <path d="M24.4,0.6 L33.5,39.2" id="Shape"></path>
                        <path d="M24.4,0.6 L32,38.8" id="Shape"></path>
                        <path d="M24.4,0.6 L30.4,38.3" id="Shape"></path>
                        <path d="M24.4,0.6 L28.8,37.7" id="Shape"></path>
                        <path d="M24.4,0.6 L27.3,37.1" id="Shape"></path>
                        <path d="M24.4,0.6 L25.9,36.3" id="Shape"></path>
                        <path d="M24.4,0.6 L24.4,35.5" id="Shape"></path>
                        <path d="M24.4,0.6 L22.5,34.3" id="Shape"></path>
                        <path d="M24.4,0.6 L20.7,33.1" id="Shape"></path>
                        <path d="M24.4,0.6 L19,31.9" id="Shape"></path>
                        <path d="M24.4,0.6 L17.5,30.6" id="Shape"></path>
                        <path d="M24.4,0.6 L16,29.3" id="Shape"></path>
                        <path d="M24.4,0.6 L14.6,28" id="Shape"></path>
                        <path d="M24.4,0.6 L13.4,26.8" id="Shape"></path>
                        <path d="M24.4,0.6 L12.2,25.5" id="Shape"></path>
                        <path d="M24.4,0.6 L11,24.3" id="Shape"></path>
                        <path d="M24.4,0.6 L9.8,22.8" id="Shape"></path>
                        <path d="M24.4,0.6 L8.4,21.1" id="Shape"></path>
                        <path d="M24.4,0.6 L5.3,16.8" id="Shape"></path>
                        <path d="M24.4,0.6 L3.6,14.1" id="Shape"></path>
                        <path d="M24.4,0.6 L1.8,11" id="Shape"></path>
                        <path d="M24.4,0.6 L0.3,7.5" id="Shape"></path>
                        <path d="M24.4,0.6 L36.6,39.7" id="Shape"></path>
                        <path d="M24.4,0.6 L38.2,39.7" id="Shape"></path>
                        <path d="M24.4,0.6 L39.8,39.7" id="Shape"></path>
                        <path d="M24.4,0.6 L41.4,39.5" id="Shape"></path>
                        <path d="M24.4,0.6 L43,39.1" id="Shape"></path>
                        <path d="M24.4,0.6 L44.5,38.5" id="Shape"></path>
                        <path d="M24.4,0.6 L46,37.8" id="Shape"></path>
                        <path d="M24.4,0.6 L47.5,36.9" id="Shape"></path>
                        <path d="M24.4,0.6 L48.5,35.4" id="Shape"></path>
                        <path d="M24.4,0.6 L35.1,39.5" id="Shape"></path>
                        <path d="M24.4,0.6 L33.5,39.2" id="Shape"></path>
                        <path d="M24.4,0.6 L32,38.8" id="Shape"></path>
                        <path d="M24.4,0.6 L30.4,38.3" id="Shape"></path>
                        <path d="M24.4,0.6 L28.8,37.7" id="Shape"></path>
                        <path d="M24.4,0.6 L27.3,37.1" id="Shape"></path>
                        <path d="M24.4,0.6 L25.9,36.3" id="Shape"></path>
                        <path d="M24.4,0.6 L24.4,35.5" id="Shape"></path>
                        <path d="M24.4,0.6 L22.5,34.3" id="Shape"></path>
                        <path d="M24.4,0.6 L20.7,33.1" id="Shape"></path>
                        <path d="M24.4,0.6 L19,31.9" id="Shape"></path>
                        <path d="M24.4,0.6 L17.5,30.6" id="Shape"></path>
                        <path d="M24.4,0.6 L16,29.3" id="Shape"></path>
                        <path d="M24.4,0.6 L14.6,28" id="Shape"></path>
                        <path d="M24.4,0.6 L13.4,26.8" id="Shape"></path>
                        <path d="M24.4,0.6 L12.2,25.5" id="Shape"></path>
                        <path d="M24.4,0.6 L11,24.3" id="Shape"></path>
                        <path d="M24.4,0.6 L9.8,22.8" id="Shape"></path>
                        <path d="M24.4,0.6 L8.4,21.1" id="Shape"></path>
                        <path d="M24.4,0.6 L6.9,19.1" id="Shape"></path>
                        <path d="M24.4,0.6 L5.3,16.8" id="Shape"></path>
                        <path d="M24.4,0.6 L3.6,14.1" id="Shape"></path>
                        <path d="M24.4,0.6 L1.8,11" id="Shape"></path>
                        <path d="M24.4,0.6 L0.3,7.5" id="Shape"></path>
                    </g>
                </g>
            </g>
            <g class="book-roof">
                <g transform="translate(68.000000, 52.000000)">
                    <g fill-rule="nonzero">
                        <polygon id="Shape" fill="#FF0000" points="24 35.6 27.1 37.4 87.3 2.8 84.3 0.9"></polygon>
                        <polygon id="Shape" fill="#A80909" points="49.6 71.5 27.1 37.4 87.3 2.8 109.8 36.8"></polygon>
                        <polygon id="Shape" fill="#840909" points="24 35.6 0.9 42.9 61.1 8.2 84.3 0.9"></polygon>
                    </g>
                </g>
            </g>
        </g>
    </g>

</svg>